<?xml version="1.0" encoding="utf-8"?>
<!-- Generator: Adobe Illustrator 16.0.0, SVG Export Plug-In . SVG Version: 6.00 Build 0)  -->
<!DOCTYPE svg PUBLIC "-//W3C//DTD SVG 1.1//EN" "http://www.w3.org/Graphics/SVG/1.1/DTD/svg11.dtd">
<svg version="1.1" id="Layer_1" xmlns="http://www.w3.org/2000/svg" xmlns:xlink="http://www.w3.org/1999/xlink" x="0px" y="0px"
	 width="68px" height="16px" viewBox="0 0 68 16" enable-background="new 0 0 68 16" xml:space="preserve">
<g>
	<g>
		<g>
			<g>
				<path fill="#FFFFFF" d="M5.419,9.421L1.731,4.24h2.181l2.62,3.78l2.633-3.78h2.122l-3.67,5.15l3.821,5.389H9.256l-2.77-3.991
					l-2.783,3.991H1.579L5.419,9.421z"/>
				<path fill="#FFFFFF" d="M22.507,4.24h1.851v10.539h-1.851V4.24z"/>
				<path fill="#FFFFFF" d="M62.834,1v1.395h-2.662V1H62.834z"/>
				<path fill="#FFFFFF" d="M36.216,4.24h1.718l5.644,7.288V4.24h1.821v10.539h-1.55L38.04,7.282v7.498h-1.824V4.24z"/>
				<path fill="#FFFFFF" d="M56.994,10.308V4.24h1.854v5.992c0,1.959,1.006,3.01,2.662,3.01c1.642,0,2.648-0.993,2.648-2.935V4.24
					h1.854v5.979c0,3.146-1.778,4.725-4.532,4.725C58.743,14.944,56.994,13.364,56.994,10.308z"/>
			</g>
		</g>
	</g>
</g>
</svg>
