<?xml version="1.0" encoding="utf-8"?>
<!-- Generator: Adobe Illustrator 16.0.0, SVG Export Plug-In . SVG Version: 6.00 Build 0)  -->
<!DOCTYPE svg PUBLIC "-//W3C//DTD SVG 1.1//EN" "http://www.w3.org/Graphics/SVG/1.1/DTD/svg11.dtd">
<svg version="1.1" id="Layer_1" xmlns="http://www.w3.org/2000/svg" xmlns:xlink="http://www.w3.org/1999/xlink" x="0px" y="0px"
	 width="725.148px" height="793.372px" viewBox="0 0 725.148 793.372" enable-background="new 0 0 725.148 793.372"
	 xml:space="preserve">
<g>
	
		<path fill="none" stroke="#231F20" stroke-width="0.712" stroke-linecap="round" stroke-linejoin="round" stroke-miterlimit="10" d="
		M716.578,57.966c0,0-1.2,0.22-2.669,0.489c-1.468,0.269-1.468,0.97,0,1.557c1.469,0.587,1.319,2.282-0.332,3.765l-1.916,1.723
		c-1.649,1.483-1.373,3.501,0.616,4.485l0.506,0.25c1.989,0.983,1.802,1.81-0.417,1.838l-69.834,0.877
		c-2.219,0.028-2.219,0.095-0.001,0.15l69.272,1.7c2.218,0.054,3.606,0.846,3.085,1.76c-0.522,0.913-0.375,1.66,0.326,1.66
		c0.7,0,0.594,0.854-0.237,1.898c-0.832,1.044-0.832,2.148,0,2.454c0.831,0.306,1.512,1.49,1.512,2.632
		c0,1.141-1.814,2.108-4.034,2.149l-2.548,0.046c-2.219,0.04-2.258,0.448-0.086,0.906l2.72,0.574
		c2.173,0.458,3.948,2.649,3.948,4.868v0.826c0,2.22-1.107,4.358-2.461,4.754s-1.334,1.466,0.044,2.38
		c1.378,0.913,0.698,1.824-1.512,2.025l-10.26,0.931c-2.211,0.201-2.216,0.575-0.012,0.832l10.192,1.187
		c2.205,0.257,4.008,1.268,4.008,2.246s-0.841,2.103-1.868,2.498s-1.008,1.094,0.044,1.549c1.053,0.457,1.913,2.646,1.913,4.867
		v1.655c0,2.22-1.808,4.205-4.017,4.413l-4.569,0.432c-2.209,0.207-2.227,0.681-0.039,1.051l4.647,0.787
		c2.188,0.371,3.384,0.994,2.658,1.386s-0.745,0.926-0.044,1.187c0.7,0.262,1.268,2.096,1.26,4.077
		c-0.008,1.982-0.635,3.851-1.395,4.152c-0.758,0.301-0.73,0.868,0.061,1.26s1.438,1.779,1.438,3.084
		c0,1.306-1.661,2.64-3.691,2.966c-2.031,0.326-2.091,1.021-0.134,1.542c1.957,0.522,3.559,2.765,3.559,4.983v15.892
		c0,2.22-0.854,4.302-1.898,4.628s-1.097,1.021-0.117,1.543c0.978,0.521-0.037,0.948-2.257,0.948H699.47
		c-2.219,0-2.231,0.212-0.027,0.472l12.15,1.429c2.203,0.26,2.565,1.006,0.805,1.657c-1.762,0.653-1.562,1.623,0.445,2.157
		c2.006,0.534,3.646,2.787,3.646,5.006v20.948c0,2.219-1.809,4.188-4.02,4.374l-2.517,0.211c-2.212,0.188-2.214,0.513-0.004,0.724
		l2.523,0.24c2.21,0.211,4.017,2.199,4.017,4.419v0.707c0,2.221-1.054,4.369-2.343,4.777c-1.288,0.408-1.269,0.968,0.045,1.245
		s2.387,1.559,2.387,2.847c0,1.289-1.814,2.393-4.032,2.452l-35.793,0.968c-2.219,0.061-2.219,0.136,0,0.169l35.791,0.532
		c2.22,0.033,4.034,0.247,4.034,0.476s-1.812,0.518-4.027,0.642l-4.606,0.259c-2.216,0.125-2.221,0.404-0.013,0.621l4.631,0.456
		c2.209,0.217,3.262,0.981,2.341,1.7c-0.922,0.717-0.922,1.558,0,1.868c0.921,0.31,0.481,1.017-0.979,1.571s-1.46,1.355,0,1.779
		s2.653,1.371,2.653,2.105c0,0.733-0.727,1.614-1.616,1.957c-0.889,0.343-0.889,0.97,0,1.394c0.89,0.424,1.616,1.839,1.616,3.144
		c0,1.306-1.448,2.64-3.218,2.966c-1.769,0.325-1.769,1.02,0,1.542c1.77,0.521,2.451,1.31,1.513,1.75
		c-0.938,0.439-0.938,1.32,0,1.957c0.938,0.636,1.705,2.011,1.705,3.055c0,1.043-1.814,1.958-4.032,2.032l-39.826,1.332
		c-2.219,0.073-2.219,0.154,0.001,0.18l39.823,0.444c2.219,0.023,4.034,1.191,4.034,2.595s-0.58,2.643-1.29,2.758
		c-0.709,0.114-0.709,0.461,0,0.771c0.71,0.31,1.29,1.017,1.29,1.57c0,0.556-1.815,1.028-4.034,1.054l-57.082,0.623
		c-2.22,0.024-2.22,0.08,0,0.125l57.082,1.143c2.22,0.045,4.034,1.896,4.034,4.116v0.471c0,2.219-0.967,4.168-2.149,4.331
		s-1.183,0.59,0,0.949c1.183,0.358,2.149,2.146,2.149,3.974s-1.814,3.353-4.034,3.39l-26.598,0.455c-2.219,0.038-2.219,0.101,0,0.14
		l26.509,0.454c2.22,0.037,4.034,1.189,4.034,2.56s-1.721,2.598-3.825,2.729c-2.104,0.13-2.104,0.455,0,0.721
		c2.104,0.266,3.825,2.299,3.825,4.519v3.773c0,2.219-1.813,4.12-4.029,4.225l-9.555,0.45c-2.217,0.104-2.22,0.319-0.006,0.479
		l6.896,0.491c2.214,0.158,4.345,0.555,4.736,0.882c0.392,0.325-1.104,0.64-3.322,0.697l-91.69,2.399
		c-2.218,0.058-2.218,0.131,0.001,0.163l92.045,1.308c2.219,0.032,2.433,0.565,0.476,1.186c-1.956,0.618-1.78,1.495,0.393,1.945
		l0.104,0.022c2.174,0.45,3.951,1.673,3.951,2.717s-1.134,2.031-2.52,2.194c-1.388,0.164-1.388,0.536,0,0.831
		c1.386,0.293,2.105,0.934,1.601,1.423c-0.506,0.489-0.506,1.21,0,1.602c0.505,0.392,0.238,0.951-0.593,1.245
		c-0.832,0.294-0.812,0.934,0.044,1.424c0.856,0.489,0.91,1.129,0.119,1.423s-0.791,0.987,0,1.542
		c0.791,0.556,0.391,1.195-0.89,1.424s-1.28,0.709,0,1.067c1.28,0.359,1.146,0.812-0.297,1.008
		c-1.443,0.196-1.464,0.757-0.045,1.246s1.579,1.184,0.356,1.542c-1.224,0.359-1.224,1.026,0,1.483
		c1.223,0.456,1.517,1.204,0.651,1.66c-0.863,0.457-0.844,1.204,0.045,1.661c0.89,0.455,0.488,1.017-0.89,1.244
		c-1.378,0.229-1.705,0.709-0.726,1.068c0.978,0.359-0.022,0.88-2.225,1.158l-2.313,0.293c-2.201,0.278-2.203,0.744-0.003,1.034
		l3.684,0.485c2.2,0.291,4,0.902,4,1.358c0,0.457-1.814,0.854-4.034,0.883l-291.757,3.811c-2.219,0.027-2.219,0.063,0,0.077
		l287.545,1.847c2.221,0.014,4.983,0.933,6.142,2.043c1.157,1.108,0.289,2.033-1.931,2.053l-213.449,1.943
		c-2.22,0.02-2.22,0.046,0,0.058l213.449,1.144c2.22,0.012,2.221,0.068,0.002,0.126l-47.149,1.215
		c-2.22,0.057-2.218,0.133,0.001,0.167l44.953,0.704c2.219,0.035,2.222,0.163,0.006,0.283l-15.785,0.864
		c-2.216,0.121-2.216,0.318,0,0.438l16.14,0.87c2.216,0.118,4.03,0.724,4.03,1.344s-1.812,1.237-4.028,1.372l-5.586,0.34
		c-2.215,0.135-2.222,0.438-0.016,0.673l7.545,0.806c2.207,0.234,4.012,1.067,4.012,1.851s-0.646,1.584-1.438,1.78
		c-0.791,0.194-0.791,0.542,0,0.771c0.791,0.228,1.438,1.269,1.438,2.313c0,1.044-0.78,2.11-1.734,2.371
		c-0.954,0.262-0.954,0.849,0,1.306c0.954,0.456,1.734,2.218,1.734,3.914s-1.814,3.121-4.034,3.166l-67.995,1.379
		c-2.22,0.044-2.22,0.112,0,0.151l67.995,1.166c2.22,0.037,4.034,1.162,4.034,2.5s-0.594,2.618-1.319,2.848
		c-0.726,0.228-0.726,0.654,0,0.949c0.726,0.293-0.486,0.721-2.693,0.949l-3.391,0.354c-2.207,0.229-2.215,0.661-0.016,0.961
		l3.332,0.453c2.199,0.3,2.185,0.624-0.033,0.721l-8.248,0.359c-2.217,0.097-2.22,0.308-0.007,0.469l8.263,0.601
		c2.213,0.161,4.023,0.72,4.023,1.241c0,0.522-0.921,1.243-2.046,1.603c-1.125,0.358-1.104,1.373,0.044,2.254
		c1.15,0.88,2.091,2.428,2.091,3.439c0,1.011-0.674,2.105-1.498,2.432c-0.822,0.325-0.822,0.967,0,1.424
		c0.824,0.456,0.824,1.097,0,1.423c-0.822,0.326-0.822,0.967,0,1.423c0.824,0.457,1.498,1.952,1.498,3.322s-0.754,2.811-1.675,3.202
		c-0.922,0.392-0.922,1.112,0,1.602c0.921,0.489,1.675,1.13,1.675,1.423c0,0.294-1.814,0.575-4.034,0.625l-65.148,1.479
		c-2.219,0.05-2.219,0.118,0,0.15l65.148,0.949c2.22,0.033,4.034,0.354,4.034,0.712s-1.815,0.67-4.034,0.693l-96.819,0.986
		c-2.219,0.021-2.219,0.07,0,0.108l96.819,1.643c2.22,0.038,4.034,1.242,4.034,2.678s-1.815,2.623-4.034,2.639l-291.252,2.077
		c-2.22,0.016-2.22,0.037,0,0.045l289.205,1.154c2.22,0.009,2.261,0.4,0.093,0.872l-1.96,0.424
		c-2.168,0.471-2.146,1.108,0.053,1.418l3.812,0.536c2.197,0.309,2.181,0.605-0.039,0.659l-95.427,2.297
		c-2.218,0.054-2.218,0.13,0.001,0.171l95.515,1.75c2.22,0.041,4.015,0.421,3.99,0.845s-1.86,0.771-4.08,0.771h-14.408
		c-2.219,0-2.23,0.204-0.025,0.452l12.977,1.467c2.205,0.25,2.199,0.59-0.014,0.757l-17.1,1.291
		c-2.213,0.167-2.21,0.389,0.007,0.493l17.204,0.807c2.217,0.104,4.084,0.456,4.149,0.783c0.065,0.326-1.695,0.663-3.914,0.749
		l-7.237,0.28c-2.217,0.087-2.235,0.42-0.039,0.74l6.604,0.967c2.196,0.321,4.406,0.984,4.912,1.475
		c0.505,0.489,0.919,1.823,0.919,2.965c0,1.143-1.794,2.355-3.986,2.697l-1.932,0.3c-2.191,0.342-2.268,1.208-0.169,1.926
		l1.735,0.593c2.1,0.718,2.003,1.328-0.217,1.357l-120.571,1.556c-2.219,0.029-2.219,0.053,0,0.053h120.689
		c2.22,0,2.236,0.25,0.038,0.554l-3.986,0.553c-2.198,0.305-2.187,0.693,0.026,0.862l4.35,0.333c2.213,0.169,2.941,0.548,1.62,0.842
		c-1.32,0.293-1.468,0.934-0.325,1.423c1.142,0.489,0.26,0.891-1.959,0.891h-8.774c-2.219,0-2.226,0.152-0.015,0.34l8.803,0.743
		c2.211,0.187,3.567,0.634,3.012,0.992c-0.554,0.358-0.407,0.865,0.327,1.126c0.734,0.262,1.334,2.104,1.334,4.094
		c0,1.989-1.815,3.617-4.035,3.617H598.585c-2.22,0-2.22,0.026,0,0.06l112.861,1.661c2.219,0.032,3.661,0.326,3.205,0.651
		c-0.457,0.326-0.23,0.78,0.504,1.009s0.734,0.709,0,1.067c-0.734,0.359-0.714,0.893,0.044,1.187
		c0.759,0.294,1.379,2.055,1.379,3.914s-1.815,3.404-4.034,3.434l-27.783,0.368c-2.22,0.029-2.223,0.162-0.008,0.294l27.709,1.654
		c2.216,0.132,2.216,0.354,0,0.492l-26.049,1.632c-2.215,0.138-2.212,0.304,0.008,0.367l24.789,0.717
		c2.22,0.063,3.688,0.384,3.264,0.71c-0.425,0.325-0.124,0.859,0.667,1.186s1.418,1.154,1.394,1.839
		c-0.024,0.686-1.419,2.046-3.099,3.024c-1.681,0.979-1.681,2.58,0,3.559c1.68,0.979,2.614,2.34,2.075,3.025
		c-0.538,0.685-0.979,3.061-0.979,5.28v9.723c0,2.219-1.067,4.354-2.372,4.747l0.118,0.354l0.119,0.356
		c1.37,0.588,2.224,1.415,1.898,1.839c-0.326,0.424-0.326,1.145,0,1.601c0.325,0.457,0.272,1.231-0.119,1.721
		s-0.418,1.21-0.06,1.602c0.359,0.392,0.306,1.218-0.119,1.838c-0.424,0.62-1.277,1.395-1.897,1.721
		c-0.62,0.325-0.459,1.02,0.355,1.542c0.816,0.521,1.42,2.764,1.343,4.981l-0.074,2.136c-0.078,2.219-0.702,4.22-1.388,4.447
		c-0.685,0.229-0.657,0.629,0.061,0.891c0.717,0.261,1.038,1.621,0.712,3.024c-0.327,1.403-0.433,2.737-0.238,2.965
		c0.196,0.229-1.46,0.416-3.679,0.416h-7.35c-2.221,0-2.233,0.224-0.031,0.496l7.293,0.905c2.203,0.272,3.951,1.991,3.886,3.818
		c-0.064,1.825-0.946,3.561-1.957,3.854c-1.012,0.293-1.198,0.72-0.416,0.949c0.783,0.228,1.664,0.814,1.958,1.305
		c0.293,0.489-1.279,0.976-3.497,1.079l-22.187,1.044c-2.217,0.104-2.218,0.297-0.002,0.428l20.056,1.185
		c2.216,0.131,4.162,1.812,4.325,3.737s-0.638,3.739-1.779,4.033c-1.142,0.293-1.169,1.095-0.06,1.779
		c1.108,0.685,1.562,1.672,1.009,2.194c-0.555,0.521-0.768,1.35-0.475,1.839c0.294,0.489,0.267,1.155-0.06,1.482
		c-0.326,0.326-0.46,1.928-0.297,3.559s-0.237,3.179-0.889,3.439c-0.653,0.262-1,1.97-0.771,3.796c0.229,1.827,0.229,4.31,0,5.517
		s-0.709,2.86-1.067,3.677c-0.359,0.815-0.866,1.803-1.127,2.194c-0.262,0.392-0.395,1.993-0.297,3.559
		c0.098,1.566-0.355,2.847-1.009,2.847c-0.651,0-0.839,1.201-0.415,2.67c0.424,1.467,0.531,2.668,0.237,2.668
		c-0.293,0-0.613,0.747-0.711,1.66c-0.099,0.913-0.392,1.794-0.653,1.957c-0.261,0.163-0.447,2.085-0.415,4.271
		c0.033,2.185-0.207,3.973-0.534,3.973c-0.325,0-0.539,0.988-0.474,2.195s-0.362,2.568-0.949,3.023
		c-0.587,0.457-0.801,1.019-0.475,1.246c0.327,0.229,0.38,0.709,0.119,1.068c-0.261,0.358,0.059,1.186,0.712,1.838v0.356
		c0,0.355-0.719,26.452-0.719,26.452c-0.062,2.218-0.118,5.849-0.127,8.067l-0.341,94.894"/>
	
		<line fill="none" stroke="#231F20" stroke-width="0.852" stroke-linecap="round" stroke-linejoin="round" stroke-miterlimit="10" x1="296.104" y1="3.291" x2="716.578" y2="3.291"/>
	
		<line fill="none" stroke="#231F20" stroke-width="0.852" stroke-miterlimit="10" x1="706.913" y1="0.426" x2="706.913" y2="3.291"/>
	
		<line fill="none" stroke="#231F20" stroke-width="0.852" stroke-miterlimit="10" x1="719.443" y1="17.788" x2="716.579" y2="17.788"/>
	
		<line fill="none" stroke="#231F20" stroke-width="0.852" stroke-miterlimit="10" x1="719.443" y1="32.286" x2="716.579" y2="32.286"/>
	
		<line fill="none" stroke="#231F20" stroke-width="0.852" stroke-miterlimit="10" x1="719.443" y1="46.784" x2="716.579" y2="46.784"/>
	
		<line fill="none" stroke="#231F20" stroke-width="0.852" stroke-miterlimit="10" x1="719.443" y1="61.281" x2="716.579" y2="61.281"/>
	
		<line fill="none" stroke="#231F20" stroke-width="0.852" stroke-miterlimit="10" x1="725.148" y1="75.779" x2="716.578" y2="75.779"/>
	
		<line fill="none" stroke="#231F20" stroke-width="0.852" stroke-miterlimit="10" x1="719.443" y1="90.276" x2="716.579" y2="90.276"/>
	
		<line fill="none" stroke="#231F20" stroke-width="0.852" stroke-miterlimit="10" x1="719.443" y1="104.774" x2="716.579" y2="104.774"/>
	
		<line fill="none" stroke="#231F20" stroke-width="0.852" stroke-miterlimit="10" x1="719.443" y1="119.271" x2="716.579" y2="119.271"/>
	
		<line fill="none" stroke="#231F20" stroke-width="0.852" stroke-miterlimit="10" x1="719.443" y1="133.77" x2="716.579" y2="133.77"/>
	
		<line fill="none" stroke="#231F20" stroke-width="0.852" stroke-miterlimit="10" x1="725.148" y1="148.268" x2="716.578" y2="148.268"/>
	
		<line fill="none" stroke="#231F20" stroke-width="0.852" stroke-miterlimit="10" x1="719.443" y1="162.765" x2="716.579" y2="162.765"/>
	
		<line fill="none" stroke="#231F20" stroke-width="0.852" stroke-miterlimit="10" x1="719.443" y1="177.262" x2="716.579" y2="177.262"/>
	
		<line fill="none" stroke="#231F20" stroke-width="0.852" stroke-miterlimit="10" x1="719.443" y1="191.76" x2="716.579" y2="191.76"/>
	
		<line fill="none" stroke="#231F20" stroke-width="0.852" stroke-miterlimit="10" x1="719.443" y1="206.258" x2="716.579" y2="206.258"/>
	
		<line fill="none" stroke="#231F20" stroke-width="0.852" stroke-miterlimit="10" x1="725.148" y1="220.755" x2="716.578" y2="220.755"/>
	
		<line fill="none" stroke="#231F20" stroke-width="0.852" stroke-miterlimit="10" x1="719.443" y1="235.253" x2="716.579" y2="235.253"/>
	
		<line fill="none" stroke="#231F20" stroke-width="0.852" stroke-miterlimit="10" x1="719.443" y1="249.751" x2="716.579" y2="249.751"/>
	
		<line fill="none" stroke="#231F20" stroke-width="0.852" stroke-miterlimit="10" x1="719.443" y1="264.248" x2="716.579" y2="264.248"/>
	
		<line fill="none" stroke="#231F20" stroke-width="0.852" stroke-miterlimit="10" x1="719.443" y1="278.746" x2="716.579" y2="278.746"/>
	
		<line fill="none" stroke="#231F20" stroke-width="0.852" stroke-miterlimit="10" x1="725.148" y1="293.243" x2="716.578" y2="293.243"/>
	
		<line fill="none" stroke="#231F20" stroke-width="0.852" stroke-miterlimit="10" x1="719.443" y1="307.741" x2="716.579" y2="307.741"/>
	
		<line fill="none" stroke="#231F20" stroke-width="0.852" stroke-miterlimit="10" x1="719.443" y1="322.238" x2="716.579" y2="322.238"/>
	
		<line fill="none" stroke="#231F20" stroke-width="0.852" stroke-miterlimit="10" x1="719.443" y1="336.736" x2="716.579" y2="336.736"/>
	
		<line fill="none" stroke="#231F20" stroke-width="0.852" stroke-miterlimit="10" x1="719.443" y1="351.234" x2="716.579" y2="351.234"/>
	
		<line fill="none" stroke="#231F20" stroke-width="0.852" stroke-miterlimit="10" x1="725.148" y1="365.731" x2="716.578" y2="365.731"/>
	
		<line fill="none" stroke="#231F20" stroke-width="0.852" stroke-miterlimit="10" x1="719.443" y1="380.229" x2="716.579" y2="380.229"/>
	
		<line fill="none" stroke="#231F20" stroke-width="0.852" stroke-miterlimit="10" x1="719.443" y1="394.727" x2="716.579" y2="394.727"/>
	
		<line fill="none" stroke="#231F20" stroke-width="0.852" stroke-miterlimit="10" x1="719.443" y1="409.225" x2="716.579" y2="409.225"/>
	
		<line fill="none" stroke="#231F20" stroke-width="0.852" stroke-miterlimit="10" x1="719.443" y1="423.723" x2="716.579" y2="423.723"/>
	
		<line fill="none" stroke="#231F20" stroke-width="0.852" stroke-miterlimit="10" x1="725.148" y1="438.22" x2="716.578" y2="438.22"/>
	
		<line fill="none" stroke="#231F20" stroke-width="0.852" stroke-miterlimit="10" x1="719.443" y1="452.718" x2="716.579" y2="452.718"/>
	
		<line fill="none" stroke="#231F20" stroke-width="0.852" stroke-miterlimit="10" x1="719.443" y1="467.215" x2="716.579" y2="467.215"/>
	
		<line fill="none" stroke="#231F20" stroke-width="0.852" stroke-miterlimit="10" x1="719.443" y1="481.713" x2="716.579" y2="481.713"/>
	
		<line fill="none" stroke="#231F20" stroke-width="0.852" stroke-miterlimit="10" x1="719.443" y1="496.211" x2="716.579" y2="496.211"/>
	
		<line fill="none" stroke="#231F20" stroke-width="0.852" stroke-miterlimit="10" x1="725.148" y1="510.708" x2="716.578" y2="510.708"/>
	
		<line fill="none" stroke="#231F20" stroke-width="0.852" stroke-miterlimit="10" x1="719.443" y1="525.206" x2="716.579" y2="525.206"/>
	
		<line fill="none" stroke="#231F20" stroke-width="0.852" stroke-miterlimit="10" x1="719.443" y1="539.703" x2="716.579" y2="539.703"/>
	
		<line fill="none" stroke="#231F20" stroke-width="0.852" stroke-miterlimit="10" x1="719.443" y1="554.201" x2="716.579" y2="554.201"/>
	
		<line fill="none" stroke="#231F20" stroke-width="0.852" stroke-miterlimit="10" x1="719.443" y1="568.699" x2="716.579" y2="568.699"/>
	
		<line fill="none" stroke="#231F20" stroke-width="0.852" stroke-miterlimit="10" x1="725.148" y1="583.196" x2="716.578" y2="583.196"/>
	
		<line fill="none" stroke="#231F20" stroke-width="0.852" stroke-miterlimit="10" x1="719.443" y1="597.694" x2="716.579" y2="597.694"/>
	
		<line fill="none" stroke="#231F20" stroke-width="0.852" stroke-miterlimit="10" x1="719.443" y1="612.191" x2="716.579" y2="612.191"/>
	
		<line fill="none" stroke="#231F20" stroke-width="0.852" stroke-miterlimit="10" x1="719.443" y1="626.689" x2="716.579" y2="626.689"/>
	
		<line fill="none" stroke="#231F20" stroke-width="0.852" stroke-miterlimit="10" x1="719.443" y1="641.188" x2="716.579" y2="641.188"/>
	
		<line fill="none" stroke="#231F20" stroke-width="0.852" stroke-miterlimit="10" x1="725.148" y1="655.685" x2="716.578" y2="655.685"/>
	
		<line fill="none" stroke="#231F20" stroke-width="0.852" stroke-miterlimit="10" x1="719.443" y1="670.183" x2="716.579" y2="670.183"/>
	
		<line fill="none" stroke="#231F20" stroke-width="0.852" stroke-miterlimit="10" x1="719.443" y1="684.68" x2="716.579" y2="684.68"/>
	
		<line fill="none" stroke="#231F20" stroke-width="0.852" stroke-miterlimit="10" x1="719.443" y1="699.178" x2="716.579" y2="699.178"/>
	
		<line fill="none" stroke="#231F20" stroke-width="0.852" stroke-miterlimit="10" x1="719.443" y1="713.675" x2="716.579" y2="713.675"/>
	
		<line fill="none" stroke="#231F20" stroke-width="0.852" stroke-miterlimit="10" x1="725.148" y1="728.173" x2="716.578" y2="728.173"/>
	
		<line fill="none" stroke="#231F20" stroke-width="0.852" stroke-miterlimit="10" x1="719.443" y1="742.671" x2="716.579" y2="742.671"/>
	
		<line fill="none" stroke="#231F20" stroke-width="0.852" stroke-miterlimit="10" x1="719.443" y1="757.168" x2="716.579" y2="757.168"/>
	
		<line fill="none" stroke="#231F20" stroke-width="0.852" stroke-miterlimit="10" x1="697.248" y1="0.426" x2="697.248" y2="3.291"/>
	
		<line fill="none" stroke="#231F20" stroke-width="0.852" stroke-miterlimit="10" x1="687.583" y1="0.426" x2="687.583" y2="3.291"/>
	
		<line fill="none" stroke="#231F20" stroke-width="0.852" stroke-miterlimit="10" x1="677.918" y1="0.426" x2="677.918" y2="3.291"/>
	
		<line fill="none" stroke="#231F20" stroke-width="0.852" stroke-miterlimit="10" x1="668.253" y1="0.426" x2="668.253" y2="3.291"/>
	
		<line fill="none" stroke="#231F20" stroke-width="0.852" stroke-miterlimit="10" x1="658.588" y1="0.426" x2="658.588" y2="3.291"/>
	
		<line fill="none" stroke="#231F20" stroke-width="0.852" stroke-miterlimit="10" x1="648.923" y1="0.426" x2="648.923" y2="3.291"/>
	
		<line fill="none" stroke="#231F20" stroke-width="0.852" stroke-miterlimit="10" x1="639.258" y1="0.426" x2="639.258" y2="3.291"/>
	
		<line fill="none" stroke="#231F20" stroke-width="0.852" stroke-miterlimit="10" x1="629.593" y1="0.426" x2="629.593" y2="3.291"/>
	
		<line fill="none" stroke="#231F20" stroke-width="0.852" stroke-miterlimit="10" x1="619.928" y1="0.426" x2="619.928" y2="3.291"/>
	
		<line fill="none" stroke="#231F20" stroke-width="0.852" stroke-miterlimit="10" x1="610.263" y1="0.426" x2="610.263" y2="3.291"/>
	
		<line fill="none" stroke="#231F20" stroke-width="0.852" stroke-miterlimit="10" x1="600.598" y1="0.426" x2="600.598" y2="3.291"/>
	
		<line fill="none" stroke="#231F20" stroke-width="0.852" stroke-miterlimit="10" x1="590.933" y1="0.426" x2="590.933" y2="3.291"/>
	
		<line fill="none" stroke="#231F20" stroke-width="0.852" stroke-miterlimit="10" x1="581.268" y1="0.426" x2="581.268" y2="3.291"/>
	
		<line fill="none" stroke="#231F20" stroke-width="0.852" stroke-miterlimit="10" x1="571.603" y1="0.426" x2="571.603" y2="3.291"/>
	
		<line fill="none" stroke="#231F20" stroke-width="0.852" stroke-miterlimit="10" x1="561.937" y1="0.426" x2="561.937" y2="3.291"/>
	
		<line fill="none" stroke="#231F20" stroke-width="0.852" stroke-miterlimit="10" x1="552.271" y1="0.426" x2="552.271" y2="3.291"/>
	
		<line fill="none" stroke="#231F20" stroke-width="0.852" stroke-miterlimit="10" x1="542.606" y1="0.426" x2="542.606" y2="3.291"/>
	
		<line fill="none" stroke="#231F20" stroke-width="0.852" stroke-miterlimit="10" x1="532.941" y1="0.426" x2="532.941" y2="3.291"/>
	
		<line fill="none" stroke="#231F20" stroke-width="0.852" stroke-miterlimit="10" x1="523.276" y1="0.426" x2="523.276" y2="3.291"/>
	
		<line fill="none" stroke="#231F20" stroke-width="0.852" stroke-miterlimit="10" x1="513.611" y1="0.426" x2="513.611" y2="3.291"/>
	
		<line fill="none" stroke="#231F20" stroke-width="0.852" stroke-miterlimit="10" x1="503.946" y1="0.426" x2="503.946" y2="3.291"/>
	
		<line fill="none" stroke="#231F20" stroke-width="0.852" stroke-miterlimit="10" x1="494.281" y1="0.426" x2="494.281" y2="3.291"/>
	
		<line fill="none" stroke="#231F20" stroke-width="0.852" stroke-miterlimit="10" x1="484.616" y1="0.426" x2="484.616" y2="3.291"/>
	
		<line fill="none" stroke="#231F20" stroke-width="0.852" stroke-miterlimit="10" x1="474.951" y1="0.426" x2="474.951" y2="3.291"/>
	
		<line fill="none" stroke="#231F20" stroke-width="0.852" stroke-miterlimit="10" x1="465.286" y1="0.426" x2="465.286" y2="3.291"/>
	
		<line fill="none" stroke="#231F20" stroke-width="0.852" stroke-miterlimit="10" x1="455.621" y1="0.426" x2="455.621" y2="3.291"/>
	
		<line fill="none" stroke="#231F20" stroke-width="0.852" stroke-miterlimit="10" x1="445.956" y1="0.426" x2="445.956" y2="3.291"/>
	
		<line fill="none" stroke="#231F20" stroke-width="0.852" stroke-miterlimit="10" x1="436.291" y1="0.426" x2="436.291" y2="3.291"/>
	
		<line fill="none" stroke="#231F20" stroke-width="0.852" stroke-miterlimit="10" x1="426.626" y1="0.426" x2="426.626" y2="3.291"/>
	
		<line fill="none" stroke="#231F20" stroke-width="0.852" stroke-miterlimit="10" x1="416.961" y1="0.426" x2="416.961" y2="3.291"/>
	
		<line fill="none" stroke="#231F20" stroke-width="0.852" stroke-miterlimit="10" x1="407.296" y1="0.426" x2="407.296" y2="3.291"/>
	<line fill="none" stroke="#231F20" stroke-width="0.852" stroke-miterlimit="10" x1="397.63" y1="0.426" x2="397.63" y2="3.291"/>
	
		<line fill="none" stroke="#231F20" stroke-width="0.852" stroke-miterlimit="10" x1="387.965" y1="0.426" x2="387.965" y2="3.291"/>
	<line fill="none" stroke="#231F20" stroke-width="0.852" stroke-miterlimit="10" x1="378.3" y1="0.426" x2="378.3" y2="3.291"/>
	
		<line fill="none" stroke="#231F20" stroke-width="0.852" stroke-miterlimit="10" x1="368.635" y1="0.426" x2="368.635" y2="3.291"/>
	<line fill="none" stroke="#231F20" stroke-width="0.852" stroke-miterlimit="10" x1="358.97" y1="0.426" x2="358.97" y2="3.291"/>
	
		<line fill="none" stroke="#231F20" stroke-width="0.852" stroke-miterlimit="10" x1="349.305" y1="0.426" x2="349.305" y2="3.291"/>
	<line fill="none" stroke="#231F20" stroke-width="0.852" stroke-miterlimit="10" x1="339.64" y1="0.426" x2="339.64" y2="3.291"/>
	
		<line fill="none" stroke="#231F20" stroke-width="0.852" stroke-miterlimit="10" x1="329.975" y1="0.426" x2="329.975" y2="3.291"/>
	<line fill="none" stroke="#231F20" stroke-width="0.852" stroke-miterlimit="10" x1="320.31" y1="0.426" x2="320.31" y2="3.291"/>
	
		<line fill="none" stroke="#231F20" stroke-width="0.852" stroke-miterlimit="10" x1="310.645" y1="0.426" x2="310.645" y2="3.291"/>
	<line fill="none" stroke="#231F20" stroke-width="0.852" stroke-miterlimit="10" x1="0.004" y1="0.426" x2="300.979" y2="3.291"/>
	
		<line fill="none" stroke="#231F20" stroke-width="0.852" stroke-linecap="round" stroke-linejoin="round" stroke-miterlimit="10" x1="716.578" y1="3.291" x2="716.578" y2="771.666"/>
</g>
</svg>
