<?xml version="1.0" encoding="utf-8"?>
<!-- Generator: Adobe Illustrator 16.0.0, SVG Export Plug-In . SVG Version: 6.00 Build 0)  -->
<!DOCTYPE svg PUBLIC "-//W3C//DTD SVG 1.1//EN" "http://www.w3.org/Graphics/SVG/1.1/DTD/svg11.dtd">
<svg version="1.1" id="Layer_1" xmlns="http://www.w3.org/2000/svg" xmlns:xlink="http://www.w3.org/1999/xlink" x="0px" y="0px"
	 width="217.429px" height="1038.146px" viewBox="0 0 217.429 1038.146" enable-background="new 0 0 217.429 1038.146"
	 xml:space="preserve">
<g>
	
		<line fill="none" stroke="#231F20" stroke-width="0.856" stroke-miterlimit="10" x1="217.429" y1="21.544" x2="23.366" y2="21.544"/>
	<line fill="none" stroke="#231F20" stroke-width="0.856" stroke-miterlimit="10" x1="23.367" y1="40.95" x2="18.515" y2="40.95"/>
	
		<line fill="none" stroke="#231F20" stroke-width="0.856" stroke-miterlimit="10" x1="100.991" y1="21.544" x2="100.991" y2="16.692"/>
	
		<line fill="none" stroke="#231F20" stroke-width="0.856" stroke-miterlimit="10" x1="178.616" y1="21.544" x2="178.616" y2="16.692"/>
	<line fill="none" stroke="#231F20" stroke-width="0.856" stroke-miterlimit="10" x1="23.367" y1="50.653" x2="20.94" y2="50.653"/>
	
		<line fill="none" stroke="#231F20" stroke-width="0.856" stroke-miterlimit="10" x1="62.179" y1="21.544" x2="62.179" y2="19.118"/>
	
		<line fill="none" stroke="#231F20" stroke-width="0.856" stroke-miterlimit="10" x1="139.804" y1="21.544" x2="139.804" y2="19.118"/>
	<line fill="none" stroke="#231F20" stroke-width="0.856" stroke-miterlimit="10" x1="23.367" y1="60.356" x2="20.94" y2="60.356"/>
	<line fill="none" stroke="#231F20" stroke-width="0.856" stroke-miterlimit="10" x1="23.367" y1="70.06" x2="20.94" y2="70.06"/>
	
		<line fill="none" stroke="#231F20" stroke-width="0.856" stroke-miterlimit="10" x1="25.729" y1="79.763" x2="20.941" y2="79.763"/>
	
		<line fill="none" stroke="#231F20" stroke-width="0.856" stroke-miterlimit="10" x1="27.583" y1="123.505" x2="23.335" y2="123.505"/>
	
		<line fill="none" stroke="#231F20" stroke-width="0.856" stroke-miterlimit="10" x1="25.729" y1="191.823" x2="23.335" y2="191.823"/>
	
		<line fill="none" stroke="#231F20" stroke-width="0.856" stroke-miterlimit="10" x1="25.729" y1="211.221" x2="23.335" y2="211.221"/>
	<line fill="none" stroke="#231F20" stroke-width="0.856" stroke-miterlimit="10" x1="25.729" y1="259" x2="23.335" y2="259"/>
	
		<line fill="none" stroke="#231F20" stroke-width="0.856" stroke-miterlimit="10" x1="25.729" y1="268.698" x2="23.335" y2="268.698"/>
	
		<line fill="none" stroke="#231F20" stroke-width="0.856" stroke-miterlimit="10" x1="25.729" y1="286.812" x2="23.335" y2="286.812"/>
	
		<line fill="none" stroke="#231F20" stroke-width="0.856" stroke-miterlimit="10" x1="25.729" y1="317.619" x2="23.335" y2="317.619"/>
	
		<line fill="none" stroke="#231F20" stroke-width="0.856" stroke-miterlimit="10" x1="25.729" y1="327.247" x2="23.335" y2="327.247"/>
	
		<line fill="none" stroke="#231F20" stroke-width="0.856" stroke-miterlimit="10" x1="25.729" y1="335.377" x2="23.335" y2="335.377"/>
	
		<line fill="none" stroke="#231F20" stroke-width="0.856" stroke-miterlimit="10" x1="25.729" y1="346.572" x2="23.335" y2="346.572"/>
	
		<line fill="none" stroke="#231F20" stroke-width="0.856" stroke-miterlimit="10" x1="25.729" y1="386.294" x2="23.335" y2="386.294"/>
	
		<line fill="none" stroke="#231F20" stroke-width="0.856" stroke-miterlimit="10" x1="25.729" y1="395.065" x2="23.335" y2="395.065"/>
	
		<line fill="none" stroke="#231F20" stroke-width="0.856" stroke-miterlimit="10" x1="25.729" y1="404.693" x2="23.335" y2="404.693"/>
	
		<line fill="none" stroke="#231F20" stroke-width="0.856" stroke-miterlimit="10" x1="25.729" y1="414.748" x2="23.335" y2="414.748"/>
	
		<line fill="none" stroke="#231F20" stroke-width="0.856" stroke-miterlimit="10" x1="25.729" y1="442.133" x2="23.335" y2="442.133"/>
	
		<line fill="none" stroke="#231F20" stroke-width="0.856" stroke-miterlimit="10" x1="25.729" y1="453.114" x2="23.335" y2="453.114"/>
	
		<line fill="none" stroke="#231F20" stroke-width="0.856" stroke-miterlimit="10" x1="25.729" y1="472.227" x2="23.335" y2="472.227"/>
	
		<line fill="none" stroke="#231F20" stroke-width="0.856" stroke-miterlimit="10" x1="25.729" y1="482.354" x2="23.335" y2="482.354"/>
	
		<line fill="none" stroke="#231F20" stroke-width="0.856" stroke-miterlimit="10" x1="28.668" y1="569.854" x2="23.335" y2="569.854"/>
	
		<line fill="none" stroke="#231F20" stroke-width="0.856" stroke-miterlimit="10" x1="83.921" y1="627.618" x2="23.335" y2="627.618"/>
	
		<line fill="none" stroke="#231F20" stroke-width="0.856" stroke-miterlimit="10" x1="25.729" y1="511.877" x2="23.335" y2="511.877"/>
	
		<line fill="none" stroke="#231F20" stroke-width="0.856" stroke-miterlimit="10" x1="25.729" y1="520.862" x2="23.335" y2="520.862"/>
	
		<line fill="none" stroke="#231F20" stroke-width="0.856" stroke-miterlimit="10" x1="25.729" y1="560.014" x2="23.335" y2="560.014"/>
	
		<line fill="none" stroke="#231F20" stroke-width="0.856" stroke-miterlimit="10" x1="25.729" y1="579.196" x2="23.335" y2="579.196"/>
	
		<line fill="none" stroke="#231F20" stroke-width="0.856" stroke-miterlimit="10" x1="25.729" y1="618.562" x2="23.335" y2="618.562"/>
	
		<line fill="none" stroke="#231F20" stroke-width="0.856" stroke-miterlimit="10" x1="25.729" y1="656.928" x2="23.335" y2="656.928"/>
	
		<line fill="none" stroke="#231F20" stroke-width="0.856" stroke-miterlimit="10" x1="25.729" y1="696.079" x2="23.335" y2="696.079"/>
	
		<line fill="none" stroke="#231F20" stroke-width="0.856" stroke-miterlimit="10" x1="25.729" y1="705.278" x2="23.335" y2="705.278"/>
	
		<line fill="none" stroke="#231F20" stroke-width="0.856" stroke-miterlimit="10" x1="25.729" y1="764.111" x2="23.335" y2="764.111"/>
	
		<line fill="none" stroke="#231F20" stroke-width="0.856" stroke-miterlimit="10" x1="33.497" y1="637.245" x2="23.335" y2="637.245"/>
	
		<line fill="none" stroke="#231F20" stroke-width="0.856" stroke-miterlimit="10" x1="77.93" y1="647.301" x2="23.335" y2="647.301"/>
	
		<line fill="none" stroke="#231F20" stroke-width="0.856" stroke-miterlimit="10" x1="25.729" y1="550.386" x2="23.335" y2="550.386"/>
	
		<line fill="none" stroke="#231F20" stroke-width="0.856" stroke-miterlimit="10" x1="25.729" y1="540.759" x2="23.335" y2="540.759"/>
	
		<line fill="none" stroke="#231F20" stroke-width="0.856" stroke-miterlimit="10" x1="27.583" y1="424.161" x2="23.335" y2="424.161"/>
	
		<line fill="none" stroke="#231F20" stroke-width="0.856" stroke-miterlimit="10" x1="34.001" y1="432.505" x2="23.335" y2="432.505"/>
	
		<line fill="none" stroke="#231F20" stroke-width="0.856" stroke-miterlimit="10" x1="27.583" y1="355.986" x2="23.335" y2="355.986"/>
	
		<line fill="none" stroke="#231F20" stroke-width="0.856" stroke-miterlimit="10" x1="34.001" y1="298.151" x2="23.335" y2="298.151"/>
	
		<line fill="none" stroke="#231F20" stroke-width="0.856" stroke-miterlimit="10" x1="30.007" y1="308.42" x2="23.335" y2="308.42"/>
	
		<line fill="none" stroke="#231F20" stroke-width="0.856" stroke-miterlimit="10" x1="25.729" y1="231.188" x2="23.335" y2="231.188"/>
	
		<line fill="none" stroke="#231F20" stroke-width="0.856" stroke-miterlimit="10" x1="25.729" y1="142.332" x2="23.335" y2="142.332"/>
	
		<line fill="none" stroke="#231F20" stroke-width="0.856" stroke-miterlimit="10" x1="25.729" y1="170.857" x2="23.335" y2="170.857"/>
	
		<line fill="none" stroke="#231F20" stroke-width="0.856" stroke-miterlimit="10" x1="34.001" y1="179.985" x2="23.335" y2="179.985"/>
	
		<line fill="none" stroke="#231F20" stroke-width="0.856" stroke-miterlimit="10" x1="40.989" y1="239.603" x2="23.335" y2="239.603"/>
	
		<line fill="none" stroke="#231F20" stroke-width="0.856" stroke-miterlimit="10" x1="23.367" y1="89.466" x2="18.515" y2="89.466"/>
	<line fill="none" stroke="#231F20" stroke-width="0.856" stroke-miterlimit="10" x1="23.367" y1="99.169" x2="20.94" y2="99.169"/>
	
		<line fill="none" stroke="#231F20" stroke-width="0.856" stroke-miterlimit="10" x1="23.367" y1="108.872" x2="20.94" y2="108.872"/>
	
		<line fill="none" stroke="#231F20" stroke-width="0.856" stroke-miterlimit="10" x1="23.367" y1="118.575" x2="20.94" y2="118.575"/>
	
		<line fill="none" stroke="#231F20" stroke-width="0.856" stroke-miterlimit="10" x1="23.367" y1="128.278" x2="20.94" y2="128.278"/>
	
		<line fill="none" stroke="#231F20" stroke-width="0.856" stroke-miterlimit="10" x1="23.367" y1="137.98" x2="18.515" y2="137.98"/>
	
		<line fill="none" stroke="#231F20" stroke-width="0.856" stroke-miterlimit="10" x1="23.367" y1="147.685" x2="20.94" y2="147.685"/>
	
		<line fill="none" stroke="#231F20" stroke-width="0.856" stroke-miterlimit="10" x1="23.367" y1="157.387" x2="20.94" y2="157.387"/>
	<line fill="none" stroke="#231F20" stroke-width="0.856" stroke-miterlimit="10" x1="23.367" y1="167.09" x2="20.94" y2="167.09"/>
	
		<line fill="none" stroke="#231F20" stroke-width="0.856" stroke-miterlimit="10" x1="27.583" y1="176.793" x2="20.94" y2="176.793"/>
	
		<line fill="none" stroke="#231F20" stroke-width="0.856" stroke-miterlimit="10" x1="25.459" y1="186.496" x2="18.516" y2="186.496"/>
	
		<line fill="none" stroke="#231F20" stroke-width="0.856" stroke-miterlimit="10" x1="23.367" y1="196.199" x2="20.94" y2="196.199"/>
	
		<line fill="none" stroke="#231F20" stroke-width="0.856" stroke-miterlimit="10" x1="25.459" y1="205.902" x2="20.94" y2="205.902"/>
	
		<line fill="none" stroke="#231F20" stroke-width="0.856" stroke-miterlimit="10" x1="23.367" y1="215.605" x2="20.94" y2="215.605"/>
	
		<line fill="none" stroke="#231F20" stroke-width="0.856" stroke-miterlimit="10" x1="23.367" y1="225.309" x2="20.94" y2="225.309"/>
	
		<line fill="none" stroke="#231F20" stroke-width="0.856" stroke-miterlimit="10" x1="30.007" y1="235.012" x2="18.516" y2="235.012"/>
	
		<line fill="none" stroke="#231F20" stroke-width="0.856" stroke-miterlimit="10" x1="27.583" y1="244.715" x2="20.94" y2="244.715"/>
	
		<line fill="none" stroke="#231F20" stroke-width="0.856" stroke-miterlimit="10" x1="25.796" y1="249.159" x2="23.267" y2="249.159"/>
	
		<line fill="none" stroke="#231F20" stroke-width="0.856" stroke-miterlimit="10" x1="25.459" y1="254.418" x2="20.94" y2="254.418"/>
	
		<line fill="none" stroke="#231F20" stroke-width="0.856" stroke-miterlimit="10" x1="25.459" y1="264.121" x2="20.94" y2="264.121"/>
	
		<line fill="none" stroke="#231F20" stroke-width="0.856" stroke-miterlimit="10" x1="23.367" y1="273.824" x2="20.94" y2="273.824"/>
	
		<line fill="none" stroke="#231F20" stroke-width="0.856" stroke-miterlimit="10" x1="23.367" y1="283.527" x2="18.515" y2="283.527"/>
	<line fill="none" stroke="#231F20" stroke-width="0.856" stroke-miterlimit="10" x1="27.583" y1="293.23" x2="20.94" y2="293.23"/>
	
		<line fill="none" stroke="#231F20" stroke-width="0.856" stroke-miterlimit="10" x1="25.459" y1="302.934" x2="20.94" y2="302.934"/>
	
		<line fill="none" stroke="#231F20" stroke-width="0.856" stroke-miterlimit="10" x1="25.459" y1="312.637" x2="20.94" y2="312.637"/>
	<line fill="none" stroke="#231F20" stroke-width="0.856" stroke-miterlimit="10" x1="23.367" y1="322.34" x2="20.94" y2="322.34"/>
	
		<line fill="none" stroke="#231F20" stroke-width="0.856" stroke-miterlimit="10" x1="25.796" y1="332.043" x2="18.515" y2="332.043"/>
	
		<line fill="none" stroke="#231F20" stroke-width="0.856" stroke-miterlimit="10" x1="25.796" y1="341.746" x2="20.94" y2="341.746"/>
	
		<line fill="none" stroke="#231F20" stroke-width="0.856" stroke-miterlimit="10" x1="27.583" y1="351.449" x2="20.94" y2="351.449"/>
	
		<line fill="none" stroke="#231F20" stroke-width="0.856" stroke-miterlimit="10" x1="30.007" y1="361.152" x2="20.941" y2="361.152"/>
	
		<line fill="none" stroke="#231F20" stroke-width="0.856" stroke-miterlimit="10" x1="30.007" y1="374.955" x2="23.368" y2="374.955"/>
	
		<line fill="none" stroke="#231F20" stroke-width="0.856" stroke-miterlimit="10" x1="52.472" y1="365.97" x2="23.368" y2="365.97"/>
	
		<line fill="none" stroke="#231F20" stroke-width="0.856" stroke-miterlimit="10" x1="40.704" y1="370.855" x2="20.941" y2="370.855"/>
	
		<line fill="none" stroke="#231F20" stroke-width="0.856" stroke-miterlimit="10" x1="26.671" y1="380.559" x2="18.515" y2="380.559"/>
	
		<line fill="none" stroke="#231F20" stroke-width="0.856" stroke-miterlimit="10" x1="25.474" y1="390.262" x2="20.941" y2="390.262"/>
	
		<line fill="none" stroke="#231F20" stroke-width="0.856" stroke-miterlimit="10" x1="25.796" y1="399.965" x2="20.94" y2="399.965"/>
	
		<line fill="none" stroke="#231F20" stroke-width="0.856" stroke-miterlimit="10" x1="25.796" y1="409.668" x2="20.94" y2="409.668"/>
	
		<line fill="none" stroke="#231F20" stroke-width="0.856" stroke-miterlimit="10" x1="25.796" y1="419.371" x2="20.94" y2="419.371"/>
	
		<line fill="none" stroke="#231F20" stroke-width="0.856" stroke-miterlimit="10" x1="25.459" y1="429.073" x2="18.516" y2="429.073"/>
	
		<line fill="none" stroke="#231F20" stroke-width="0.856" stroke-miterlimit="10" x1="25.796" y1="438.776" x2="20.94" y2="438.776"/>
	
		<line fill="none" stroke="#231F20" stroke-width="0.856" stroke-miterlimit="10" x1="25.796" y1="448.479" x2="20.94" y2="448.479"/>
	
		<line fill="none" stroke="#231F20" stroke-width="0.856" stroke-miterlimit="10" x1="25.796" y1="458.183" x2="20.94" y2="458.183"/>
	
		<line fill="none" stroke="#231F20" stroke-width="0.856" stroke-miterlimit="10" x1="25.796" y1="467.886" x2="20.94" y2="467.886"/>
	
		<line fill="none" stroke="#231F20" stroke-width="0.856" stroke-miterlimit="10" x1="23.367" y1="477.589" x2="18.515" y2="477.589"/>
	
		<line fill="none" stroke="#231F20" stroke-width="0.856" stroke-miterlimit="10" x1="30.649" y1="487.292" x2="20.941" y2="487.292"/>
	
		<line fill="none" stroke="#231F20" stroke-width="0.856" stroke-miterlimit="10" x1="56.75" y1="492.408" x2="23.369" y2="492.408"/>
	
		<line fill="none" stroke="#231F20" stroke-width="0.856" stroke-miterlimit="10" x1="38.351" y1="502.464" x2="23.369" y2="502.464"/>
	
		<line fill="none" stroke="#231F20" stroke-width="0.856" stroke-miterlimit="10" x1="76.218" y1="496.995" x2="20.941" y2="496.995"/>
	
		<line fill="none" stroke="#231F20" stroke-width="0.856" stroke-miterlimit="10" x1="25.796" y1="506.698" x2="20.94" y2="506.698"/>
	
		<line fill="none" stroke="#231F20" stroke-width="0.856" stroke-miterlimit="10" x1="25.796" y1="516.401" x2="20.94" y2="516.401"/>
	
		<line fill="none" stroke="#231F20" stroke-width="0.856" stroke-miterlimit="10" x1="23.367" y1="526.104" x2="18.515" y2="526.104"/>
	
		<line fill="none" stroke="#231F20" stroke-width="0.856" stroke-miterlimit="10" x1="23.367" y1="535.808" x2="20.94" y2="535.808"/>
	
		<line fill="none" stroke="#231F20" stroke-width="0.856" stroke-miterlimit="10" x1="23.367" y1="545.511" x2="20.94" y2="545.511"/>
	
		<line fill="none" stroke="#231F20" stroke-width="0.856" stroke-miterlimit="10" x1="23.367" y1="555.214" x2="20.94" y2="555.214"/>
	
		<line fill="none" stroke="#231F20" stroke-width="0.856" stroke-miterlimit="10" x1="23.367" y1="564.917" x2="20.94" y2="564.917"/>
	
		<line fill="none" stroke="#231F20" stroke-width="0.856" stroke-miterlimit="10" x1="23.367" y1="574.62" x2="18.515" y2="574.62"/>
	
		<line fill="none" stroke="#231F20" stroke-width="0.856" stroke-miterlimit="10" x1="25.729" y1="584.323" x2="20.941" y2="584.323"/>
	
		<line fill="none" stroke="#231F20" stroke-width="0.856" stroke-miterlimit="10" x1="23.367" y1="594.026" x2="20.94" y2="594.026"/>
	
		<line fill="none" stroke="#231F20" stroke-width="0.856" stroke-miterlimit="10" x1="23.367" y1="603.729" x2="20.94" y2="603.729"/>
	
		<line fill="none" stroke="#231F20" stroke-width="0.856" stroke-miterlimit="10" x1="23.367" y1="613.433" x2="20.94" y2="613.433"/>
	
		<line fill="none" stroke="#231F20" stroke-width="0.856" stroke-miterlimit="10" x1="23.367" y1="623.136" x2="18.515" y2="623.136"/>
	
		<line fill="none" stroke="#231F20" stroke-width="0.856" stroke-miterlimit="10" x1="46.053" y1="632.839" x2="20.94" y2="632.839"/>
	
		<line fill="none" stroke="#231F20" stroke-width="0.856" stroke-miterlimit="10" x1="62.526" y1="773.739" x2="20.941" y2="773.739"/>
	
		<line fill="none" stroke="#231F20" stroke-width="0.856" stroke-miterlimit="10" x1="28.416" y1="642.542" x2="20.94" y2="642.542"/>
	
		<line fill="none" stroke="#231F20" stroke-width="0.856" stroke-miterlimit="10" x1="30.649" y1="652.245" x2="20.941" y2="652.245"/>
	
		<line fill="none" stroke="#231F20" stroke-width="0.856" stroke-miterlimit="10" x1="23.367" y1="661.948" x2="20.94" y2="661.948"/>
	
		<line fill="none" stroke="#231F20" stroke-width="0.856" stroke-miterlimit="10" x1="23.367" y1="671.651" x2="18.515" y2="671.651"/>
	
		<line fill="none" stroke="#231F20" stroke-width="0.856" stroke-miterlimit="10" x1="23.367" y1="681.354" x2="20.94" y2="681.354"/>
	
		<line fill="none" stroke="#231F20" stroke-width="0.856" stroke-miterlimit="10" x1="23.367" y1="691.057" x2="20.94" y2="691.057"/>
	<line fill="none" stroke="#231F20" stroke-width="0.856" stroke-miterlimit="10" x1="23.367" y1="700.76" x2="20.94" y2="700.76"/>
	
		<line fill="none" stroke="#231F20" stroke-width="0.856" stroke-miterlimit="10" x1="26.001" y1="710.463" x2="20.941" y2="710.463"/>
	
		<line fill="none" stroke="#231F20" stroke-width="0.856" stroke-miterlimit="10" x1="23.367" y1="720.166" x2="18.515" y2="720.166"/>
	
		<line fill="none" stroke="#231F20" stroke-width="0.856" stroke-miterlimit="10" x1="23.367" y1="729.869" x2="20.94" y2="729.869"/>
	
		<line fill="none" stroke="#231F20" stroke-width="0.856" stroke-miterlimit="10" x1="23.367" y1="739.572" x2="20.94" y2="739.572"/>
	
		<line fill="none" stroke="#231F20" stroke-width="0.856" stroke-miterlimit="10" x1="23.367" y1="749.275" x2="20.94" y2="749.275"/>
	
		<line fill="none" stroke="#231F20" stroke-width="0.856" stroke-miterlimit="10" x1="25.729" y1="768.682" x2="18.516" y2="768.682"/>
	
		<line fill="none" stroke="#231F20" stroke-width="0.856" stroke-miterlimit="10" x1="176.2" y1="780.799" x2="23.318" y2="780.799"/>
	
		<line fill="none" stroke="#231F20" stroke-width="0.856" stroke-miterlimit="10" x1="41.733" y1="788.088" x2="20.94" y2="788.088"/>
	
		<line fill="none" stroke="#231F20" stroke-width="0.856" stroke-miterlimit="10" x1="23.367" y1="797.791" x2="20.94" y2="797.791"/>
	
		<line fill="none" stroke="#231F20" stroke-width="0.856" stroke-miterlimit="10" x1="23.367" y1="807.494" x2="20.94" y2="807.494"/>
	
		<line fill="none" stroke="#231F20" stroke-width="0.856" stroke-miterlimit="10" x1="23.367" y1="817.197" x2="18.515" y2="817.197"/>
	
		<line fill="none" stroke="#231F20" stroke-width="0.856" stroke-miterlimit="10" x1="23.367" y1="21.544" x2="23.367" y2="1038.146"/>
	<text transform="matrix(-6.123234e-17 1 -1 -6.123234e-17 177.0957 0)"><tspan x="0" y="0" fill="#231F20" font-family="'ArialNarrow'" font-size="11.5682">1</tspan><tspan x="4.94" y="0" fill="#231F20" font-family="'ArialNarrow'" font-size="11.5682">0</tspan><tspan x="10.401" y="0" fill="#231F20" font-family="'ArialNarrow'" font-size="11.5682">0</tspan></text>
	<text transform="matrix(-6.123234e-17 1 -1 -6.123234e-17 3.5596 84.2041)"><tspan x="0" y="0" fill="#231F20" font-family="'ArialNarrow'" font-size="11.5682">2</tspan><tspan x="5.242" y="0" fill="#231F20" font-family="'ArialNarrow'" font-size="11.5682">0</tspan></text>
	<text transform="matrix(-6.123234e-17 1 -1 -6.123234e-17 30.8477 137.2676)"><tspan x="0" y="0" fill="#231F20" font-family="'ArialNarrow'" font-size="11.5682">3</tspan><tspan x="4.848" y="0" fill="#231F20" font-family="'ArialNarrow'" font-size="11.5682">1</tspan></text>
	<text transform="matrix(-6.123234e-17 1 -1 -6.123234e-17 30.5957 263.4775)"><tspan x="0" y="0" fill="#231F20" font-family="'ArialNarrow'" font-size="11.5682">5</tspan><tspan x="5.16" y="0" fill="#231F20" font-family="'ArialNarrow'" font-size="11.5682">7</tspan></text>
	<text transform="matrix(-6.123234e-17 1 -1 -6.123234e-17 30.7676 312.4102)"><tspan x="0" y="0" fill="#231F20" font-family="'ArialNarrow'" font-size="11.5682">6</tspan><tspan x="5.137" y="0" fill="#231F20" font-family="'ArialNarrow'" font-size="11.5682">7</tspan></text>
	<text transform="matrix(-6.123234e-17 1 -1 -6.123234e-17 39.4668 427.3633)"><tspan x="0" y="0" fill="#231F20" font-family="'ArialNarrow'" font-size="11.5682">9</tspan><tspan x="5.01" y="0" fill="#231F20" font-family="'ArialNarrow'" font-size="11.5682">1</tspan></text>
	<text transform="matrix(-6.123234e-17 1 -1 -6.123234e-17 81.5303 489.3232)"><tspan x="0" y="0" fill="#231F20" font-family="'ArialNarrow'" font-size="11.5682">1</tspan><tspan x="4.939" y="0" fill="#231F20" font-family="'ArialNarrow'" font-size="11.5682">0</tspan><tspan x="10.365" y="0" fill="#231F20" font-family="'ArialNarrow'" font-size="11.5682">4</tspan></text>
	<text transform="matrix(-6.123234e-17 1 -1 -6.123234e-17 31.9375 688.377)"><tspan x="0" y="0" fill="#231F20" font-family="'ArialNarrow'" font-size="11.5682">1</tspan><tspan x="4.813" y="0" fill="#231F20" font-family="'ArialNarrow'" font-size="11.5682">4</tspan><tspan x="10.124" y="0" fill="#231F20" font-family="'ArialNarrow'" font-size="11.5682">5</tspan></text>
	<text transform="matrix(-6.123234e-17 1 -1 -6.123234e-17 181.0869 773.0791)"><tspan x="0" y="0" fill="#231F20" font-family="'ArialNarrow'" font-size="11.5682">1</tspan><tspan x="4.941" y="0" fill="#231F20" font-family="'ArialNarrow'" font-size="11.5682">6</tspan><tspan x="10.17" y="0" fill="#231F20" font-family="'ArialNarrow'" font-size="11.5682">2</tspan></text>
	<text transform="matrix(-6.123234e-17 1 -1 -6.123234e-17 38.6934 174.6787)"><tspan x="0" y="0" fill="#231F20" font-family="'ArialNarrow'" font-size="11.5682">3</tspan><tspan x="5.311" y="0" fill="#231F20" font-family="'ArialNarrow'" font-size="11.5682">9</tspan></text>
	<text transform="matrix(-6.123234e-17 1 -1 -6.123234e-17 3.5479 181.2041)"><tspan x="0" y="0" fill="#231F20" font-family="'ArialNarrow'" font-size="11.5682">4</tspan><tspan x="5.287" y="0" fill="#231F20" font-family="'ArialNarrow'" font-size="11.5682">0</tspan></text>
	<text transform="matrix(-6.123234e-17 1 -1 -6.123234e-17 3.5479 423.6846)"><tspan x="0" y="0" fill="#231F20" font-family="'ArialNarrow'" font-size="11.5682">9</tspan><tspan x="5.472" y="0" fill="#231F20" font-family="'ArialNarrow'" font-size="11.5682">0</tspan></text>
	<text transform="matrix(-6.123234e-17 1 -1 -6.123234e-17 3.5469 518.8096)"><tspan x="0" y="0" fill="#231F20" font-family="'ArialNarrow'" font-size="11.5682">1</tspan><tspan x="4.362" y="0" fill="#231F20" font-family="'ArialNarrow'" font-size="11.5682">1</tspan><tspan x="9.303" y="0" fill="#231F20" font-family="'ArialNarrow'" font-size="11.5682">0</tspan></text>
	<text transform="matrix(-6.123234e-17 1 -1 -6.123234e-17 3.5479 712.4268)"><tspan x="0" y="0" fill="#231F20" font-family="'ArialNarrow'" font-size="11.5682">1</tspan><tspan x="4.848" y="0" fill="#231F20" font-family="'ArialNarrow'" font-size="11.5682">5</tspan><tspan x="10.193" y="0" fill="#231F20" font-family="'ArialNarrow'" font-size="11.5682">0</tspan></text>
	<text transform="matrix(-6.123234e-17 1 -1 -6.123234e-17 3.5488 760.874)"><tspan x="0" y="0" fill="#231F20" font-family="'ArialNarrow'" font-size="11.5682">1</tspan><tspan x="4.941" y="0" fill="#231F20" font-family="'ArialNarrow'" font-size="11.5682">6</tspan><tspan x="10.332" y="0" fill="#231F20" font-family="'ArialNarrow'" font-size="11.5682">0</tspan></text>
</g>
</svg>
