<?xml version="1.0" encoding="utf-8"?>
<!-- Generator: Adobe Illustrator 16.0.0, SVG Export Plug-In . SVG Version: 6.00 Build 0)  -->
<!DOCTYPE svg PUBLIC "-//W3C//DTD SVG 1.1//EN" "http://www.w3.org/Graphics/SVG/1.1/DTD/svg11.dtd">
<svg version="1.1" id="Layer_1" xmlns="http://www.w3.org/2000/svg" xmlns:xlink="http://www.w3.org/1999/xlink" x="0px" y="0px"
	 width="444.307px" height="441.611px" viewBox="0 0 444.307 441.611" enable-background="new 0 0 444.307 441.611"
	 xml:space="preserve">
<g>
	<path fill="none" stroke="#808080" stroke-width="0.25" stroke-miterlimit="10" d="M85.184,86.164
		c0-8.468,1.936-14.275,7.017-21.05c7.984-10.887,23.711-25.405,38.712-18.146c5.081,2.419,7.984,7.742,13.549,9.678
		c2.903,0.968,6.533,0.968,9.679,0.726c3.87-0.242,6.532-1.936,10.161-3.387c4.84-1.694,10.162-2.662,15.243-3.872
		c12.098-2.903,54.197-5.323,43.793,17.421c-2.178,4.597-3.145,9.436-5.322,14.033c-2.179,4.354-6.291,7.258-9.437,10.888
		c-3.629,4.113-8.468,7.742-11.372,12.339c-3.387,4.839-4.112,11.13-6.532,16.453c-2.42,6.049-7.017,9.436-11.855,13.549
		c-4.839,4.597-7.259,9.194-10.162,15.243c-4.362,9.087-6.341,25.015-17.086,29.212c-2.27,0.886-4.729,0.007-6.89,0.978
		c-2.359,1.061-3.655,4.041-4.561,6.276c-1.839,4.54-2.476,9.437-3.384,14.213c-1.005,5.285-1.391,12.581-0.696,18.002
		c0.536,4.176,2.644,8.081,3.177,12.408c0.534,4.335,0.016,8.869,0.688,13.197c0.819,5.264,3.178,10.457,4.45,15.628
		c1.683,6.842,1.772,14.263,7.102,19.28c3.544,3.337,6.357,8.449,10.419,10.988c3.944,2.467,9.698,4.067,14.188,5.382
		c3.616,1.059,6.07,1.467,9.295-0.702c3.292-2.215,6.22-4.605,7.676-8.537c0.607-1.639,0.745-3.3,1.812-4.662
		c0.686-0.876,1.885-1.169,2.538-2.215"/>
	<path fill="none" stroke="#808080" stroke-width="0.25" stroke-miterlimit="10" d="M84.517,218.598
		c-4.614-0.923-7.808,2.601-11.191,4.446c-4.613,2.768-6.767,3.691-9.535,8.92c-3.076,5.844-3.691,12.304-3.076,19.071
		c0.616,8.305,8.92,12.611,12.919,19.685c4.614,8.305,12.304,7.998,20.301,3.384c5.844-3.691,6.768-7.998,8.92-14.149
		c1.846-6.767,6.459-10.766,6.459-17.84c0-7.382-1.845-11.996-8.611-15.38c-6.152-2.46-8.848-4.902-14.691-7.978L84.517,218.598z"/>
	<path fill="none" stroke="#808080" stroke-width="0.25" stroke-miterlimit="10" d="M174.53,211.261
		c2.158-0.086,3.815,0.039,3.354,2.915c-0.46,3.267-2.552,6.34-3.665,9.451c-1.83,5.116-0.262,9.654,0.004,14.662
		c0.22,3.744-1.484,8.905-5.727,8.869c-2.56,0.021-4.824-3.363-5.539-5.724c-0.879-2.498-0.62-5.603,0.082-8.159
		c0.975-3.317,2.399-6.706,3.562-9.956c0.618-1.728,1.689-3.138,2.347-4.775c0.73-1.844,0.962-3.087,2.373-4.454
		c0.986-0.973,1.829-2.933,3.473-2.969"/>
	<path fill="none" stroke="#808080" stroke-width="0.25" stroke-miterlimit="10" d="M107.206,30.178
		c-4.446,6.016-10.962,9.081-18.024,9.604c-4.446,0.263-7.324,0.523-11.247,2.877c-4.708,3.139-12.033,7.586-15.956,11.771
		c-3.924,4.185-6.278,11.248-9.417,16.218C47.33,78.495,39.997,86.743,35.027,94.59c-7.062,10.725-10.938,21.146-13.331,33.604"/>
	<path fill="none" stroke="#808080" stroke-width="0.25" stroke-miterlimit="10" d="M16.987,132.379
		c-1.308-8.894-0.651-16.851,3.14-24.849c2.236-4.721,10.44-15.877,15.748-24.78c2.569-4.311,5.264-7.121,9.448-8.952
		c3.925-1.569,6.716-2.627,10.639-3.673c6.277-1.57,13.079-6.54,16.741-11.771c8.632-11.248,16.774-31.664,34.3-30.618"/>
	<path fill="none" stroke="#808080" stroke-width="0.25" stroke-miterlimit="10" d="M240.312,12.98
		c-3.378-7.551-7.697-9.633-15.897-12.122c-8.602-2.61-16.74,2.303-24.064,5.965c-7.324,3.923-10.283,10.416-18.914,15.386
		c-8.392,4.831-20.062,4.755-28.954,6.063c-9.155,1.569-18.572-1.046-27.988,0.261c-7.324,1.308-10.985,5.755-16.74,9.679"/>
	<path fill="none" stroke="#808080" stroke-width="0.25" stroke-miterlimit="10" d="M135.896,49.275
		c8.755-11.224,21.775-15.714,35.918-16.388c6.062-0.449,8.979-0.224,13.918-3.815c2.469-1.571,5.389-2.918,7.857-3.816
		c2.693-1.123,7.856-1.123,9.652-3.367c4.49-5.613-3.143-11-7.856-11.897c-4.714-0.898-10.775,0.224-15.265,2.245
		c-10.552,5.163-20.429,13.02-33,10.774c-6.062-1.122-10.775-3.815-17.062-1.571c-5.612,2.02-12.122,6.285-15.265,11.224"/>
	<path fill="none" stroke="#808080" stroke-width="0.25" stroke-miterlimit="10" d="M81.556,89.75
		c1.57-5.388-1.557-8.149-1.78-13.312c-0.449-12.795,9.219-17.723,16.851-26.254l2.234-1.508
		c12.555-8.632,6.539-29.035,22.757-34.789c8.37-3.139,15.955-2.355,24.587-1.308c4.447,0.523,10.202,0.523,14.388-0.785
		c3.923-1.308,7.585-3.662,11.248-5.231c4.445-1.831,8.631-2.093,13.077-3.139c9.94-1.831,19.88-3.14,30.344-3.14"/>
	<path fill="none" stroke="#808080" stroke-width="0.25" stroke-miterlimit="10" d="M78.679,76.474
		c-5.521,0-10.791-0.502-16.312-0.251c-8.282,0.502-6.565,9.421-11.084,15.694c-4.517,6.275-20.172,11.478-23.936,18.003"/>
	<path fill="none" stroke="#808080" stroke-width="0.25" stroke-miterlimit="10" d="M59.809,147.211
		c0-6.733-1.885-13.736-1.077-20.469c1.077-7.271,6.194-15.082,11.042-20.738c5.656-6.194,9.965-13.466,15.621-19.93
		c2.693-3.232,5.117-7.002,8.35-9.965c2.962-2.693,5.116-2.962,8.617-3.771c5.117-1.616,13.467-7.003,17.237-0.808
		c3.232,5.117,4.228,14.295,1.534,18.604c-3.771,6.464-8.887,10.503-11.581,17.506c-2.154,5.386-7.689,8.968-10.383,13.815"/>
	<path fill="none" stroke="#808080" stroke-width="0.25" stroke-miterlimit="10" d="M92.084,88.314
		c-0.365,3.195-3.417,19.171-4.512,21.362c-1.644,3.286-1.058,7.454-3.2,10.322c-2.564,3.43-4.061,6.008-5.795,9.203"/>
	<path fill="none" stroke="#808080" stroke-width="0.25" stroke-miterlimit="10" d="M92.522,122.18
		c1.643-2.008,2.19-4.929,3.194-7.394c0.913-2.282,1.004-4.747,1.917-7.029c0.913-2.373,2.465-4.382,3.651-6.572
		c1.552-2.922,3.013-6.299,4.107-9.494c0.73-2.191,1.734-5.568,0.092-7.577c-1.734-2.099-4.199-2.008-6.481-1.186
		c-3.012,1.004-5.203,3.469-7.394,5.751c-1.917,1.917-3.742,3.834-5.478,6.024c-1.552,2.009-2.646,4.565-4.199,6.664
		c-2.19,3.104-4.016,6.755-6.663,9.402c-2.922,2.921-5.934,5.386-7.851,9.129c-2.83,5.294-4.656,12.688-3.925,18.622"/>
	<path fill="none" stroke="#808080" stroke-width="0.25" stroke-miterlimit="10" d="M63.481,137.848
		c0.569,4.202,0.552,7.633,1.151,11.825c0.599,4.491,0.39,9.71-0.434,14.166c-1.838,9.948-0.939,18.979-0.432,28.547
		c0.756,14.274-2.587,21.878,0.108,32.657c1.796,7.486,4.108,18.816,4.108,26.602c0,5.09-0.757,6.372-0.757,11.462
		c0,7.785,1.031,12.764,6.121,19.052c2.695,3.893,7.187,4.791,10.779,7.785c3.893,3.893,4.791,7.486,10.779,8.683
		c9.882,1.797,14.372-2.694,14.372-12.276c0-7.486-4.191-14.073-2.096-21.559c1.797-6.886,5.989-11.977,6.887-19.462
		c0.898-7.486,0.299-15.87-4.791-21.559c-5.39-6.587-10.18-12.875-14.971-20.061c-3.893-5.689-9.582-10.48-17.067-7.187
		c-10.479,4.491-10.446,11.534-14.34,20.518"/>
	<path fill="none" stroke="#808080" stroke-width="0.25" stroke-miterlimit="10" d="M196.993,25.102
		c6.159,0,9.936-0.596,13.711-5.564c4.372-5.961,6.358-9.737,14.308-9.737c7.551,0,13.115,1.987,19.871,4.968
		c4.57,1.986,6.955,3.378,10.532,6.756c2.384,2.385,4.968,3.776,6.16,7.154c3.974,12.718-4.941,23.812-18.022,31.314
		c-5.593,3.208-6.221,7.038-8.804,13.198c-1.988,4.372-3.976,7.948-6.955,11.724c-4.771,6.359-11.923,11.128-19.077,14.506
		c-1.987,0.795-5.167,1.192-5.564,3.577"/>
	<path fill="none" stroke="#808080" stroke-width="0.25" stroke-miterlimit="10" d="M318.447,48.042
		c-2.414-8.948-15.766-11.362-22.725-14.628c-4.118-1.847-7.669-4.119-12.072-5.113c-4.544-0.852-8.236-1.278-12.924-1.278
		c-3.266,0-6.675,0.71-10.083,0.142"/>
	<path fill="none" stroke="#808080" stroke-width="0.25" stroke-miterlimit="10" d="M224.854,62.954
		c1.846-2.84,3.408-7.243,4.403-10.51c1.562-4.402,1.278-10.367,0.284-14.912c-0.853-4.971-0.143-10.084,3.976-13.634
		c3.978-3.267,11.788-3.409,16.191-0.853c4.118,2.415,8.379,4.687,12.498,7.102"/>
	<path fill="none" stroke="#808080" stroke-width="0.25" stroke-miterlimit="10" d="M216.043,50.48
		c-0.284-3.551,2.846-4.427,4.691-6.699c1.988-2.272,2.131-4.545,2.842-7.243c2.556-9.232,7.101-15.196,17.042-15.196"/>
	<path fill="none" stroke="#808080" stroke-width="0.25" stroke-miterlimit="10" d="M202.272,48.468
		c2.84,0.426,9.089-4.687,10.794-6.675c2.981-3.408,5.165-7.441,7.438-11.56c2.557-4.402,6.338-8.607,12.161-9.744
		c4.261-0.709,7.812,0.427,11.788,0.711"/>
	<path fill="none" stroke="#808080" stroke-width="0.25" stroke-miterlimit="10" d="M257.211,57.877
		c3.655-2.501,6.156-5.771,7.887-9.811c2.116-5.386,4.04-16.735-3.463-18.659"/>
	<path fill="none" stroke="#808080" stroke-width="0.25" stroke-miterlimit="10" d="M276.062,74.228
		c-1.347-5.194-7.695-9.426-11.927-12.311c-4.232-2.886-9.041-4.617-13.08-7.695c-2.886-2.308-7.695-9.426-5.771-13.658
		c2.116-4.424,8.85-5.771,13.081-5.963c4.232-0.192,6.732,0.962,10.58,2.692c4.232,1.924,8.079,2.116,12.503,2.31
		c4.232,0.191,8.464,0,12.504,0.769c5.578,0.962,9.811,5.001,15.196,6.348"/>
	<path fill="none" stroke="#808080" stroke-width="0.25" stroke-miterlimit="10" d="M267.406,42.104
		c6.54,4.424,17.89,9.041,25.777,9.618"/>
	<path fill="none" stroke="#808080" stroke-width="0.25" stroke-miterlimit="10" d="M237.013,79.999
		c1.539-7.695,6.54-14.235,14.62-14.235c8.079,0,17.889,3.847,22.506,10.965"/>
	<path fill="none" stroke="#808080" stroke-width="0.25" stroke-miterlimit="10" d="M241.245,10.556
		c7.502,0,10.965,1.347,17.12,4.81c3.848,1.924,8.849,1.347,13.08,1.539c7.695,0.385,14.62,2.692,21.737,5.771
		c4.81,2.116,9.041,5.771,14.043,7.502c2.886,1.154,6.155,1.154,9.041,2.501c3.271,1.539,5.578,3.462,8.271,5.578
		c4.425,3.848,9.041,8.657,11.157,14.235"/>
	<path fill="none" stroke="#808080" stroke-width="0.25" stroke-miterlimit="10" d="M328.001,41.334
		c5.579,0.77,10.965,1.731,16.543,2.501c7.694,1.154,11.733,4.232,18.274,8.079c7.311,4.424,13.273,9.233,18.852,16.159
		c3.463,4.424,9.426,8.656,11.542,13.85c2.309,5.963-0.192,12.119,3.847,17.697"/>
	<path fill="none" stroke="#808080" stroke-width="0.25" stroke-miterlimit="10" d="M344.352,56.916
		c4.424,0,9.618-0.769,13.85,0.192c4.04,0.77,8.079,4.809,10.772,7.887c3.078,3.463,5.579,7.31,8.08,11.157
		c2.308,3.655,6.155,8.272,7.309,12.312"/>
	<path fill="none" stroke="#808080" stroke-width="0.25" stroke-miterlimit="10" d="M333.771,49.221
		c4.424,0,9.233,0.385,13.465,1.154c4.425,0.77,6.156,4.424,10.003,6.156"/>
	<path fill="none" stroke="#808080" stroke-width="0.25" stroke-miterlimit="10" d="M427.158,193.784
		c2.938-2.938,1.603-14.156,1.334-18.429c-0.533-6.945-2.136-16.026-8.813-19.498c-5.876-3.206-16.56-0.802-19.23-8.013
		c-2.403-6.143-0.802-12.554-4.273-18.964c-3.472-6.944-7.479-13.354-14.69-17.094c-3.472-1.87-4.808-3.739-7.479-6.677
		c-2.938-3.205-6.678-5.075-9.081-8.815c-5.075-6.677-7.479-12.82-13.89-18.162c-4.808-4.273-10.684-8.28-16.56-11.218
		c-13.622-6.677-26.709-8.814-41.399-3.472c-7.479,2.938-13.889,6.143-18.162,13.354c-4.006,6.41-3.739,11.485-4.006,18.963
		c-0.268,8.28-1.069,15.492-3.205,23.505c-0.803,3.738-0.803,6.676-2.67,10.147c-3.392,6.298-5.291,11.143-5.205,18.342
		c0.106,8.841-0.636,17.761-1.537,26.548c-1.811,17.618-4.986,35.061-8.407,52.427c-2.701,13.712-3.379,28.106-11.866,39.528
		c-4.556,6.132-6.037,14.068-11.482,19.514c-1.76,1.761-2.776,3.192-3.94,5.236c-2.069,3.633-5.095,6.43-7.344,9.902
		c-3.364,5.194-6.747,14.348-5.136,20.793"/>
	<path fill="none" stroke="#808080" stroke-width="0.25" stroke-miterlimit="10" d="M308.446,46.162
		c6.143-0.534,14.278,12.472,19.62,14.609c6.41,2.137,14.954,3.042,20.83,6.515c16.024,9.615,21.638,26.337,29.115,43.164
		c4.541,10.684,7.479,20.567,20.3,21.635c6.411,0.534,17.941-7.742,22.924-2.674"/>
	<path fill="none" stroke="#808080" stroke-width="0.25" stroke-miterlimit="10" d="M396.175,100.835
		c7.479,1.068,13.088,8.013,16.56,13.889c1.869,2.938,3.473,5.876,4.809,9.081c1.335,3.205,3.472,5.075,5.341,7.746
		c4.274,7.211,7.479,15.224,7.479,23.771c0,8.013,1.869,16.026,1.603,24.039c-0.267,3.739-0.535,9.081-3.205,11.752"/>
	<path fill="none" stroke="#808080" stroke-width="0.25" stroke-miterlimit="10" d="M400.807,103.915
		c3.906,8.525,12.187,33.808,13.963,43.044c3.908,17.761,10.302,35.166,6.749,53.638"/>
	<path fill="none" stroke="#808080" stroke-width="0.25" stroke-miterlimit="10" d="M352.049,306.59
		c2.842-7.459,6.952-11.15,6.952-18.965c0.355-9.946,4.263-17.761,9.235-25.931c4.618-8.881,14.563-7.815,21.668-13.143
		c10.302-7.815,4.973-17.406,8.524-27.707c4.618-13.498,25.932-14.564,29.483-27.352"/>
	<path fill="none" stroke="#808080" stroke-width="0.25" stroke-miterlimit="10" d="M200.16,121.455
		c6.536-1.961,11.11-8.823,16.339-12.418c5.229-3.594,12.418-7.515,19.28-6.208c3.595,0.653,5.228,3.921,8.823,4.901
		c3.268,0.654,6.209-0.327,9.477,1.307c6.208,3.269,10.854,10.649,12.16,17.512"/>
	<path fill="none" stroke="#808080" stroke-width="0.25" stroke-miterlimit="10" d="M224.669,87.797
		c7.843-6.536,15.685-11.437,26.469-10.457c6.536,0.654,17.319,4.902,19.934,11.437"/>
	<path fill="none" stroke="#808080" stroke-width="0.25" stroke-miterlimit="10" d="M176.306,137.141
		c6.861-0.654,18.3-5.555,24.182-9.477c7.842-5.229,15.032-11.11,24.508-13.398c17.319-3.921,32.252,3.012,37.154,20.332"/>
	<path fill="none" stroke="#808080" stroke-width="0.25" stroke-miterlimit="10" d="M114.755,67.873
		c4.575-8.823,15.61-2.602,24.951,1.624c6.577,2.976,13.726,1.307,19.607-2.614c8.169-4.902,15.685-12.091,26.142-10.457
		c9.478,1.307,12.091,10.784,12.091,19.28c0,20.914-17.508,32.051-29.271,46.43c-5.882,7.515-8.196,22.261-13.751,30.104
		c-5.556,7.843-16.778,8.756-20.699,17.579c-3.595,7.842-2.288,16.665,1.634,23.854"/>
	<path fill="none" stroke="#808080" stroke-width="0.25" stroke-miterlimit="10" d="M117.053,196.637
		c0-9.15-2.492-12.033-3.474-21.182c-1.307-8.497,6.041-14.892,3.82-23.093c-2.257-8.334-2.854-16.201,0.086-24.044
		c3.267-8.169,7.189-16.339,11.438-23.855c4.574-8.169,6.28-14.546,14.45-19.121c3.488-1.878,7.434-6.318,14.494-8.92
		c5.104-1.88,8.961-2.349,13.863-5.29c7.189-4.248,12.418-9.478,20.914-12.418c3.594-0.98,10.13-3.594,12.744,0.327
		c2.94,4.248-2.287,8.496-4.248,11.764c-2.941,5.229-5.882,13.071-3.921,19.28c2.94,9.477,10.13,12.091,5.882,22.875
		c-6.209,16.012-14.663,41.319-35.251,45.567"/>
	<path fill="none" stroke="#808080" stroke-width="0.25" stroke-miterlimit="10" d="M135.26,210.352
		c-3.921-8.169-7.318-6.548-10.585-15.044c-3.269-8.823-3.269-18.3-4.249-27.45c-1.96-16.666,0.327-32.351,7.843-47.056
		c2.614-4.575,5.882-8.17,7.517-13.071c2.287-5.229,2.94-7.189,7.843-10.457c7.516-5.229,16.012-11.764,24.508-15.359
		c11.111-5.228,8.17,10.457,4.902,16.666c-4.248,7.843-10.457,14.378-14.378,22.874c-4.25,9.15-12.745,12.418-20.588,18.627
		c-2.941,2.614-14.052,18.953-18.3,13.071"/>
	<path fill="none" stroke="#808080" stroke-width="0.25" stroke-miterlimit="10" d="M134.322,119.152
		c6.209-5.229,7.516-15.032,15.686-17.646c2.94-0.654,7.843-0.98,9.477,1.961c2.287,4.248-3.595,7.189-6.209,9.476
		c-3.594,2.941-7.189,5.229-10.457,7.843c-3.594,2.941-5.555,6.862-9.15,9.803c-3.267,2.615-7.515,3.922-5.882-2.287
		c0.981-3.268,5.556-6.536,7.19-9.804"/>
	<path fill="none" stroke="#808080" stroke-width="0.25" stroke-miterlimit="10" d="M49.188,194.654
		c0-14.705,1.634-35.619,11.109-47.056c6.536-7.516,12.745-15.032,21.896-19.934c7.188-3.594,17.973-9.15,22.874,0.327
		c5.882,10.784,2.288,25.162-0.653,36.271c-3.268,13.726-3.595,27.123-3.595,41.175"/>
	<path fill="none" stroke="#808080" stroke-width="0.25" stroke-miterlimit="10" d="M48.861,196.941
		c0-4.902,2.73-9.477,4.037-13.725c1.961-4.248,5.69-7.287,6.997-11.535c1.307-3.921,10.914-20.144,14.182-24.393
		c6.208-6.862,7.789-14.069,17.919-15.049c9.15-0.981,11.438,13.398,10.457,20.587c-1.307,8.823-8.142,10.365-8.795,19.515"/>
	<path fill="none" stroke="#808080" stroke-width="0.25" stroke-miterlimit="10" d="M78.16,143.854
		c16.993-4.575,17.432,4.724,16.123,16.488c-0.979,10.457-0.971,20.229-0.971,31.013"/>
	<path fill="none" stroke="#808080" stroke-width="0.25" stroke-miterlimit="10" d="M132.844,186.826
		c-5.556-5.228-4.455-13.594-4.782-20.783c-0.327-9.803,4.255-11.528,11.771-15.45c7.189-3.921,12.166-16.437,15.435-23.626"/>
	<path fill="none" stroke="#808080" stroke-width="0.25" stroke-miterlimit="10" d="M227.609,189.099
		c0-3.268,3.596-9.477,0.654-11.764c-2.288-1.961-8.17,0.979-9.804,2.614c-5.229,5.229-7.517,15.032-12.091,21.241
		c-4.575,6.535-7.517,14.378-12.418,20.914c-5.229,7.516-5.556,14.378-6.535,23.201c-1.308,11.111-7.189,18.3-16.013,24.508
		c-8.169,5.229-16.012,7.843-17.646-4.574c-0.98-7.843,0.979-15.032,2.287-22.548c1.307-9.15,0-17.973,0.98-26.796
		c1.308-8.17,5.556-15.032,11.438-20.587c2.94-3.268,6.861-5.882,9.803-9.15s4.575-7.516,8.497-9.803
		c2.287-1.634,9.803-4.902,11.437-1.308c1.308,2.615-3.921,8.824-5.229,10.784c-5.555,8.823-5.555,15.032-5.882,24.836
		c-0.326,8.169-3.921,14.705-5.229,22.547c-0.653,5.882,0.327,11.111-1.961,16.993c-2.94,7.516-19.606,26.796-26.469,11.764"/>
	<path fill="none" stroke="#808080" stroke-width="0.25" stroke-miterlimit="10" d="M165.921,198.353
		c5.228-0.98,8.834-5.273,14.062-5.273c6.208,0,8.086,0.594,7.759,5.823"/>
	<path fill="none" stroke="#808080" stroke-width="0.25" stroke-miterlimit="10" d="M214.087,159.241
		c-3.251-1.013-7.356,1.493-9.488,3.678c-1.386,1.439-2.452,3.145-2.292,5.224c0.16,1.279,0.693,2.024,1.973,2.079
		c2.078,0.053,2.879-1.12,4.424-2.346c1.546-1.226,3.145-1.865,5.063-2.079c2.665-0.319,5.544-2.985,3.146-5.49
		c-0.746-0.799-1.812-1.226-2.878-1.226"/>
	<path fill="none" stroke="#808080" stroke-width="0.25" stroke-miterlimit="10" d="M357.153,171.86
		c-0.653,4.76,0.232,8.833,1.755,13.532c0.983,3.368,1.705,6.88,1.954,10.327c0.085,2.885-0.587,6.026,0.444,9.041
		c0.916,2.102,3.039,4.189,2.984,6.337c-0.199,3.206-3.951,7.719-6.23,10.28c-5.176,6.114-12.113,0.491-16.928-3.044
		c-3.044-2.394-5.809-3.312-6.768-6.857c-0.395-2.389-0.08-4.68-0.001-7.005c0.089-5.914,2.153-22.906,2.952-28.723l0.557-1.506
		c0.653-4.759,5.334-13.099,13.259-12.908c6.48,0.172,6.246,7.144,5.998,10.702"/>
	<path fill="none" stroke="#808080" stroke-width="0.25" stroke-miterlimit="10" d="M342.691,186.766
		c0.234-3.992,0.333-8.642,5.521-8.173c6.085,0.605,3.158,10.362,2.632,14.305c-0.64,5.374,1.67,9.007,2.267,14.144
		c0.581,4.783-3.146,8.877-7.257,4.794c-5.228-5.098-4.497-13.444-3.555-19.901C342.299,191.935,342.613,188.097,342.691,186.766z"
		/>
	<path fill="none" stroke="#808080" stroke-width="0.25" stroke-miterlimit="10" d="M322.4,198.061
		c-0.356-3.025,3.202-5.16,4.981-6.94c2.313-2.313,2.491-3.558,2.491-6.583c0-6.05,0-13.701,2.491-19.217
		c3.202-7.474,13.168-25.446,23.665-17.794c10.321,7.473,8.008,21.708,12.457,32.384c1.066,2.491,2.847,4.627,3.736,7.296
		c1.067,2.847,1.423,5.872,2.313,8.719c1.778,6.761,0.532,11.21-1.78,17.793c-1.602,4.449-3.025,12.456-7.117,15.303
		c-2.135,1.779-8.007,3.915-10.499,3.915h-11.564c-7.118-0.178-10.499-6.228-13.702-12.812c-1.423-3.025-1.602-6.584-2.313-9.964
		c-0.534-2.669-1.778-4.093-3.203-6.406c-1.245-1.957-1.778-3.737-1.956-6.05"/>
	<path fill="none" stroke="#808080" stroke-width="0.25" stroke-miterlimit="10" d="M349.093,125.543
		c-5.873-3.344-7.663-6.217-14.941-1.539c-5.978,3.899-4.158,9.877-2.339,15.335c3.379,8.837-3.898,12.996-7.538,20.274
		c-3.638,7.277-4.678,16.114-5.458,23.912c-0.779,7.537-2.858,12.215-5.718,18.973c-2.339,5.198-1.56,11.436-2.599,16.894
		c-1.3,7.798,0.26,13.516,5.978,19.234c5.718,5.718,5.458,11.956,8.837,18.454c3.379,7.017,10.916,10.916,18.454,9.097
		c5.718-1.56,14.815-3.899,16.374-10.137c1.82-7.017,0-13.515,6.238-18.973c2.858-2.6,5.978-3.119,9.097-4.679
		c3.379-2.079,4.939-5.458,6.238-9.097c2.599-7.017-1.039-11.956-1.819-18.714c-1.04-10.136,6.758-17.414,3.379-27.29
		c-1.82-4.159-4.419-8.837-7.018-12.736c-3.899-5.458-5.719-10.137-8.317-16.375c-3.119-8.057-7.401-16.845-16.23-20.888
		C350.994,126.96,349.775,125.932,349.093,125.543z"/>
	<path fill="none" stroke="#808080" stroke-width="0.25" stroke-miterlimit="10" d="M322.367,199.047
		c-2.137,9.02-0.461,16.776,2.398,25.354c1.039,3.898,1.819,6.237,4.158,9.356c2.859,3.639,3.639,7.018,5.198,11.177
		c2.859,7.797,9.616,11.436,17.934,10.656c4.939-0.52,7.278-4.678,10.657-8.057c2.599-2.859,11.212-0.569,13.684-6.927
		c3.479-8.942-1.059-22.956-1.765-32.492"/>
	<path fill="none" stroke="#808080" stroke-width="0.25" stroke-miterlimit="10" d="M380.988,205.995
		c5.979-6.238,8.567-3.785,10.387-12.881c1.56-6.758-1.039-16.112-3.379-22.35c-5.458-13.515-11.219-23.367-17.717-36.363
		c-4.158-8.837-5.54-19.54-9.958-28.377c-3.639-7.278-9.854-16.31-19.211-12.671c-6.498,2.599-15.796,16.096-19.694,21.555
		c-5.459,7.537-6.758,14.815-8.058,23.912c-0.779,7.797-1.559,15.075-3.639,22.612c-2.079,8.057-7.018,15.335-7.277,23.652
		c-0.26,7.538-0.78,15.075,2.079,21.833c2.859,7.017,4.159,12.735,3.639,20.273c-0.52,8.317,0.521,16.374,0.78,24.692
		c0,3.898-1.971,17.991-0.26,23.652c1.73,5.728,5.718,11.436,9.876,15.595c3.639,3.898,10.917,3.898,15.854,4.678
		c18.454,2.599,15.82-15.702,28.295-24.019"/>
	<path fill="none" stroke="#808080" stroke-width="0.25" stroke-miterlimit="10" d="M70.922,103.125
		c0-3.197-2.951-8.853-6.147-9.345c-3.935-0.738-7.132,3.197-9.591,5.164c-5.655,4.673-10.574,9.345-16.23,14.017
		c-5.41,4.181-9.099,15.493-10.574,22.133c-1.475,7.623-2.459,17.951-0.983,25.575c1.722,9.098,0.602,21.751,10.695,25.417"/>
	<path fill="none" stroke="#808080" stroke-width="0.25" stroke-miterlimit="10" d="M65.167,108.449
		c-5.043-3.362-9.245,0.331-11.459,2.79c-5.41,6.395-11.804,11.804-14.263,19.919c-1.229,4.427-3.935,8.607-4.427,13.034
		c-0.492,4.672,0.246,10.574,1.476,14.755c2.214,7.869,5.309,12.075,3.562,20.285c-0.131,0.619,0.372,5.044,0.372,5.044
		c0,6.147,0.492,12.541-2.459,18.197c-1.967,4.181-6.148,6.394-8.361,10.329c-1.967,3.196-1.721,7.131-1.476,10.82
		c0.983,13.279,5.656,26.804,9.591,39.592"/>
	<path fill="none" stroke="#808080" stroke-width="0.25" stroke-miterlimit="10" d="M48.81,196.04c0,5.164-0.757,7.909-3.954,12.09
		c-3.443,4.426-7.132,7.623-8.607,13.525c-3.196,11.804-3.196,28.772,0.246,40.576"/>
	<path fill="none" stroke="#808080" stroke-width="0.25" stroke-miterlimit="10" d="M57.643,130.913
		c-3.442,6.394-6.147,12.296-11.804,16.722c-6.639,4.918-13.525,8.607-20.657,12.542c-15.738,8.115-22.624,27.05-22.132,44.019
		v1.476c2.459-6.394,8.853-9.837,11.804-16.231c4.182-8.115,4.918-15.984,13.279-21.64c3.689-2.459,8.361-2.459,12.05-4.672
		c3.443-1.968,6.395-6.886,8.361-10.329c3.935-6.885,5.901-14.263,9.837-20.902"/>
	<path fill="none" stroke="#808080" stroke-width="0.25" stroke-miterlimit="10" d="M2.559,205.917
		c-3.197,4.918-1.967,13.525-2.213,19.181c-0.246,4.918-0.492,10.574,0.491,15.493c2.213,9.344,5.902,19.673,12.295,27.05
		c0.738-2.459,2.213-4.18,3.197-6.394c1.23-2.95,0.492-3.688-1.229-6.639c-2.705-4.427-4.919-8.853-6.148-13.771
		c-1.476-5.902-1.476-12.296-2.459-18.444c-0.738-5.902-2.224-10.669-3.945-16.325"/>
	<path fill="none" stroke="#808080" stroke-width="0.25" stroke-miterlimit="10" d="M58.135,270.838
		c-4.426-7.131-11.559-3.197-18.198-5.902c-5.164-1.967-17.654-17.14-23.063-9.025"/>
	<path fill="none" stroke="#808080" stroke-width="0.25" stroke-miterlimit="10" d="M12.769,267.973
		c0,7.623-1.473,13.691,0.003,21.069c1.967,9.344,3.367,20.33,3.613,30.166c0.246,16.23,15.564,36.802,32.532,41.474
		c7.869,2.213,15.985,3.935,23.116,8.853c7.378,5.164,11.611,1.488,20.709,3.21"/>
	<path fill="none" stroke="#808080" stroke-width="0.25" stroke-miterlimit="10" d="M6.001,258.788
		c-6.886,3.443-5.901,14.509-5.656,20.903c0.246,7.623,2.459,12.295,7.131,18.197c4.673,5.656,4.673,13.28,8.116,19.673
		c3.935,7.624,13.525,8.607,21.148,9.837c13.033,2.213,22.624,0.738,35.658,0.738c10.573,0,16.075,4.969,24.683,10.625
		c3.197,1.967,14.677,4.078,18.366,5.062"/>
	<path fill="none" stroke="#808080" stroke-width="0.25" stroke-miterlimit="10" d="M33.02,121.266
		c-3.216,3.405-7.953,4.96-11.358,7.419c-3.973,2.649-5.485,7.756-6.81,11.918c-3.027,9.269-3.594,20.43-2.648,29.888"/>
	<path fill="none" stroke="#808080" stroke-width="0.25" stroke-miterlimit="10" d="M14.095,191.867
		c-0.378,4.54,2.838,8.323,4.351,12.296c2.271,5.675,5.486,9.269,9.458,13.431"/>
	<path fill="none" stroke="#808080" stroke-width="0.25" stroke-miterlimit="10" d="M19.678,178.563
		c0,8.323,8.337,22.618,15.715,26.969"/>
	<path fill="none" stroke="#808080" stroke-width="0.25" stroke-miterlimit="10" d="M36.753,225.45
		c7.333-0.423,12.008,7.452,18.154,16.329"/>
	<path fill="none" stroke="#808080" stroke-width="0.25" stroke-miterlimit="10" d="M63.784,201.263
		c3.256-7.105,6.672-13.45,14.665-15.522c10.064-2.664,14.505,3.849,18.057,11.841c3.257,6.809,6.217,11.545,11.249,17.466
		c5.625,6.809,13.56,10.293,13.56,19.174c0,7.401-2.026,16.749-3.803,23.854c-2.368,8.585-1.134,17.343,0.346,25.928
		c0.889,6.216-2.405,13.635-5.958,18.964c-4.145,5.92-14.209,7.993-21.313,5.328c-3.85-1.48-5.625-6.216-9.177-8.584
		c-3.553-2.369-7.697-3.257-10.657-6.217c-5.328-4.736-8.585-10.953-10.657-17.466c-2.368-7.696-3.226-15.992-3.817-23.985
		c-0.941-11.287-0.908-18.343-0.778-21.468c0.888-13.913-5.766-26.777-5.469-40.69"/>
	<path fill="none" stroke="#808080" stroke-width="0.25" stroke-miterlimit="10" d="M55.135,225.618
		c-2.731-7.511-6.818-10.417-12.574-14.773"/>
	<path fill="none" stroke="#808080" stroke-width="0.25" stroke-miterlimit="10" d="M98.258,233.401
		c-3.578-2.333-4.179-3.136-8.689-3.292c-5.601-0.311-7.623,4.356-8.868,9.334c-1.244,4.356-2.644,8.712-0.466,13.068
		c2.178,4.201,4.355,6.223,4.822,11.046c0.312,3.733,1.089,9.178,6.067,8.867s5.757-5.289,7.156-9.023
		c1.555-4.2,4.822-7.778,6.067-11.979c1.711-4.978-0.312-8.556-2.334-12.912c-0.467-0.933-0.627-1.798-1.299-2.689
		C100.579,235.643,98.258,233.401,98.258,233.401z"/>
	<path fill="none" stroke="#808080" stroke-width="0.25" stroke-miterlimit="10" d="M97.41,233.841
		c-1.564-1.12-6.238-3.851-7.78,0.302c-1.187,2.966,0.356,5.576,1.305,8.187c0.831,2.254-0.948,9.254,2.018,10.204
		c2.254,0.83,2.492-2.492,2.61-3.916c0.118-2.491,0.118-4.39,1.187-6.644c1.186-2.135,3.915-6.525,0.593-8.186"/>
	<path fill="none" stroke="#808080" stroke-width="0.25" stroke-miterlimit="10" d="M293.468,123.795
		c-5.551,8.49-14.694,12.082-17.959,22.531c-4.245,12.082-5.878,24.817-9.144,37.552c-1.307,5.224-4.897,19.592-11.429,20.898
		c-9.796,1.959-5.225-18.286-4.571-22.858c1.306-9.796,1.555-14.499,1.555-24.949c0,0-0.264-6.209,0.07-8.242
		c0.989-6.001,11.438-7.828,16.514-11.834c6.677-5.075,10.683-10.684,12.553-18.964c3.205-13.355-1.023-24.979,0.046-38.065
		l-0.039-1.659c-0.769-8.936,2.501-22.712,12.119-26.249c7.118-2.607,13.851-4.84,21.545-4.468
		c9.233,0.744,18.274,4.84,26.738,8.377c5.579,2.42,10.196,5.957,15.197,9.308c4.809,2.979,10.194,6.144,14.427,9.681
		c5.002,4.095,9.234,8.749,13.081,13.776c2.501,2.978,6.721,10.2,10.567,11.689"/>
	<path fill="none" stroke="#808080" stroke-width="0.25" stroke-miterlimit="10" d="M350.918,80.319
		c-4.245,0-13.367,0.373-17.287-0.933c-3.591-0.98-6.856-3.918-11.428-4.245c-10.123-0.653-14.368,6.857-15.348,16
		c-1.307,10.123-0.653,20.246-3.266,30.368c-2.938,11.429-0.979,22.531-5.224,33.633c-1.96,5.225-5.225,7.184-7.837,11.756
		c-2.286,4.245-3.592,10.449-3.919,15.347c-0.653,7.837-1.306,23.837,6.856,29.062"/>
	<path fill="none" stroke="#808080" stroke-width="0.25" stroke-miterlimit="10" d="M288.236,207.125
		c-7.51-16.327-11.429-34.286-5.878-52.572c1.308-4.245,2.613-9.143,3.919-13.388c1.632-4.245,2.745-7.989,5.031-11.581
		c5.224-8.816,4.484-14.55,4.484-24.673l-0.191-3.651c-1.708-7.919,2.159-16.92,5.575-22.899c1.631-2.95,5.081-7.511,7.954-9.452
		c2.872-1.941,12.639-6.524,15.977-6.524"/>
	<path fill="none" stroke="#808080" stroke-width="0.25" stroke-miterlimit="10" d="M250.795,148.343
		c-6.118-8.158-9.687-15.805-20.394-18.865c-7.648-2.039-15.807-0.509-22.944,2.04c-8.667,3.059-19.374,5.608-26.512,9.687
		c-9.178,5.608-10.707,14.276-16.825,21.414"/>
	<path fill="none" stroke="#808080" stroke-width="0.25" stroke-miterlimit="10" d="M229.236,182.714
		c5.698-12.883,22.808-23.365,5.713-35.257c-7.432-5.45-21.553-3.221-27.994,2.23c-4.211,3.468-8.672,6.689-12.883,9.909
		c-4.955,3.717-9.414,8.671-14.864,11.644c-5.945,3.469-9.166,7.68-13.873,12.635c-3.222,3.221-7.929,4.955-11.149,8.176
		c-5.698,5.945-7.432,16.103-7.68,23.783c-0.247,7.927,1.238,16.846-0.247,24.773c-1.239,8.175-5.698,14.369-8.919,21.554
		c-3.221,6.936-3.964,16.103-0.991,23.535c1.487,4.212,3.716,11.396,8.175,11.396c3.469,0,9.167-2.23,12.635-5.946
		c5.603-6.001,9.168-14.864,16.848-14.616c7.518,0.242,15.111-0.496,20.562-6.937c4.46-5.451,5.451-14.617,6.938-21.306
		c2.229-8.919,3.964-17.094,10.157-24.279c5.202-5.698,13.131-11.396,14.369-19.324c0.743-4.707,0.89-11.693,1.734-16.351
		C227.914,187.517,229.236,182.714,229.236,182.714z"/>
	<path fill="none" stroke="#808080" stroke-width="0.25" stroke-miterlimit="10" d="M189.036,145.637
		c2.726-0.991,10.734-1.401,13.459-1.154c8.671,0.496,12.636,4.955,19.82,8.671c4.211,2.23,8.175,2.973,11.891,6.442
		c3.964,3.468,4.955,8.175,5.946,13.13c1.982,11.396,0.991,23.04-3.221,33.693c-4.211,11.148-10.407,15.729-19.326,24.152
		c-5.202,4.955-3.383,9.979-3.383,16.916"/>
	<path fill="none" stroke="#808080" stroke-width="0.25" stroke-miterlimit="10" d="M106.114,157.05
		c0,9.942,0.051,19.669,4.86,28.648c3.528,7.055,5.187,10.334,9.355,17.39c5.132,8.979,11.545,15.714,13.47,26.618
		c1.604,11.224-0.32,19.241-3.849,29.183c-2.245,7.055-3.527,15.393-0.641,22.449c2.244,6.414,4.489,18.6,9.3,22.769
		c7.376,6.735,16.034,4.811,24.373,4.49c8.338-0.321,15.394,7.376,23.09,3.207c6.093-3.528,12.187-10.262,17.317-15.394"/>
	<path fill="none" stroke="#808080" stroke-width="0.25" stroke-miterlimit="10" d="M133.8,243.175
		c0,10.583,2.245,21.166,6.735,30.787c3.207,7.376,3.848,14.752,11.224,19.562c4.49,2.887,9.3,3.528,13.79,5.452
		c4.81,1.924,8.659,4.811,13.469,5.773c8.338,1.283,16.356-2.886,23.09-7.376c6.735-4.169,14.753-10.904,19.885-16.676
		c4.169-4.49,7.376-10.904,9.94-16.356c4.169-8.979,3.207-20.525,8.338-28.863c2.566-4.169,6.414-6.414,8.98-10.583
		c2.886-4.81,4.81-8.659,8.979-12.507c6.095-5.772,17.64-9.3,25.978-7.376c29.504,6.735-5.452,48.746,11.224,64.781"/>
	<path fill="none" stroke="#808080" stroke-width="0.25" stroke-miterlimit="10" d="M274.844,418.199
		c-1.081,1.256-2.041,3.643-3.253,4.665c-10.21,8.603-26.99,11.139-39.534,9.311c-4.826-0.703-9.66-0.802-14.522-1.156
		c-2.711-0.197-5.783,0.083-8.385-0.839c-5.007-1.774-7.993-7.17-12.206-10.135c-4.951-3.485-9.442-7.304-15.218-9.42
		c-4.51-1.653-8.99-2.905-13.922-2.906c-4.017,0-9.194-0.245-12.925,1.167c-3.735,1.412-6.538,4.462-10.496,5.541
		c-3.528,0.962-7.376,1.283-11.225,1.604c-6.414,0.32-30.146-2.887-32.391-4.49c-4.169-2.887-6.093-9.3-6.734-13.79
		c-1.282-9.621,0.963-14.111,9.941-18.601c7.376-3.527,17.318-8.017,22.77-13.79c3.849-4.489,8.979-7.055,13.148-11.224
		c5.132-5.131,10.263-10.583,16.677-14.431c4.489-2.887,9.941-3.528,14.752-5.773c5.772-2.245,9.941-6.414,14.11-10.262
		c4.49-4.49,11.866-9.942,14.432-15.394c2.565-4.81,4.811-9.3,7.696-14.11"/>
	<path fill="none" stroke="#808080" stroke-width="0.25" stroke-miterlimit="10" d="M287.093,207.256
		c4.811,10.583-0.962,20.204-3.848,30.146c-3.528,11.865-2.245,23.41,1.603,34.956c4.169,12.507,9.301,24.693,4.812,37.842
		c-3.207,9.941-11.866,16.355-14.433,26.297c-0.32,1.924-2.529,8.533,0.787,15.752"/>
	<path fill="none" stroke="#808080" stroke-width="0.25" stroke-miterlimit="10" d="M223.274,315.332
		c-1.283-8.979,10.583-14.111,15.393-19.242c6.735-7.376,8.98-18.6,11.866-27.58c4.811-16.035,8.659-53.556,30.787-54.519
		c2.566,0,4.811-0.321,6.414,1.924"/>
	<path fill="none" stroke="#808080" stroke-width="0.25" stroke-miterlimit="10" d="M245.723,284.544
		c8.338-10.262,10.263-19.242,13.79-32.07c1.925-5.772,2.886-10.904,9.3-12.507c3.85-0.962,8.98-0.321,11.226,2.566"/>
	<path fill="none" stroke="#808080" stroke-width="0.25" stroke-miterlimit="10" d="M209.805,314.69
		c0-9.3,11.866-15.393,18.921-18.921c8.019-3.849,15.395-8.018,23.411-11.866c10.583-5.131,26.297-13.79,37.842-6.414"/>
	<path fill="none" stroke="#808080" stroke-width="0.25" stroke-miterlimit="10" d="M365.492,293.894
		c4.004-14.016,4.604-35.208,21.958-36.876c5.673-0.667,11.012,1.001,15.35-3.671c3.337-3.67,3.671-8.676,6.007-12.68
		c6.007-10.012,19.021-13.349,24.36-24.361c5.34-10.678,6.674-24.026,7.342-35.706c0.333-6.674,0.92-12.889-1.382-18.701
		c-0.108-0.273-0.575-1.225-0.638-1.512c-0.921-4.182-4.388-6.934-7.325-9.872c-4.006-4.274-6.944-4.808-12.553-3.473
		c-4.008,1.069-6.945,3.206-9.884-0.801c-1.067-1.602-1.067-3.472-2.137-5.075c-0.801-1.335-2.403-1.869-3.205-2.938
		c-3.739-5.609-2.671-13.889-5.074-20.032c-5.877-14.423-18.574-16.792-31.663-20.798"/>
	<path fill="none" stroke="#808080" stroke-width="0.25" stroke-miterlimit="10" d="M391.635,156.731
		c21.829,8.316,14.169,38.552,14.503,47.562c0.333,11.68,2.336,22.358,4.004,34.038"/>
	<path fill="none" stroke="#808080" stroke-width="0.25" stroke-miterlimit="10" d="M317.197,290.011
		c-0.334,1.001-0.59,1.267-0.59,2.268c-1.669,7.008-6.674,18.688,0,24.695c5.005,4.671,19.688,2.002,25.027-1.335
		c7.008-4.338,11.013-10.679,17.019-16.018c7.009-6.34,16.019-7.342,23.693-12.013c16.353-10.345,9.01-31.368,8.677-47.052
		c0-6.341,0-13.015,2.002-19.021c2.002-6.674,6.006-12.013,7.008-19.021c1.334-9.01,0.334-18.687-3.004-27.363l-0.927-2.334
		c-4.079-12.746-11.727-23.963-16.825-35.69c-3.059-6.628-3.568-13.256-10.196-17.844c-6.118-4.079-14.276-5.099-19.374-10.197
		c-7.648-8.158-16.316-28.552-30.592-17.845c-10.197,7.648-8.157,25.492-8.668,36.199c-0.51,13.256-0.51,23.453-7.138,34.67
		c-6.628,11.217-10.707,26.003-7.138,38.749c3.059,13.256,7.647,19.884,6.118,33.65c-1.529,15.296-3.569,28.042-10.707,42.318
		c-6.118,10.707-11.216,16.825-11.216,29.571c0,11.217,0.021,16.698,7.158,25.365"/>
	<path fill="none" stroke="#808080" stroke-width="0.25" stroke-miterlimit="10" d="M415.147,154.905
		c0,4.004,0.334,7.341-1.335,11.012c-2.002,4.672-3.671,7.008-3.003,12.347c1.001,9.01,5.673,17.019,5.339,26.696"/>
	<path fill="none" stroke="#808080" stroke-width="0.25" stroke-miterlimit="10" d="M294.681,269.365
		c8.676,8.676,11.346,15.684,11.346,27.697c0,10.679-1.335,17.687,6.007,26.029c7.342,8.009,18.021,16.018,28.698,10.679
		c10.011-5.34,14.683-13.682,22.358-21.357c5.673-5.673,11.346-14.35,19.021-17.687c7.342-3.003,18.021-1.668,22.025-9.677
		c3.337-6.674,3.67-17.019,5.673-24.36c1.334-4.672,4.338-19.021,1.001-23.026"/>
	<path fill="none" stroke="#808080" stroke-width="0.25" stroke-miterlimit="10" d="M225.284,404.15
		c7.415-18.341,17.075-29.307,24.39-30.828c5.104-1.062,8.299-1.177,12.637-3.179c4.672-2.002,6.676-5.673,9.679-10.011
		c3.003-4.004,5.673-8.676,8.009-13.348c1.335-3.337,2.669-10.011,5.339-12.347c10.678-9.678,10.345,12.681,8.676,17.686
		c-2.002,6.34-7.008,13.682-11.679,18.02c-4.338,3.671-10.011,5.006-14.016,8.676c-9.345,7.675-12.986,9.136-27.034,24.941"/>
	<path fill="none" stroke="#808080" stroke-width="0.25" stroke-miterlimit="10" d="M276.6,374.298
		c0.667,9.01-5.278,15.534,8.737,17.536c9.678,1.002,17.353-0.333,23.692-8.008c8.01-10.011,6.674-22.358,9.011-34.038
		c1.001-5.339,3.003-11.012,5.006-16.018c2.335-6.006,5.638-9.939,10.31-13.944"/>
	<path fill="none" stroke="#808080" stroke-width="0.25" stroke-miterlimit="10" d="M311.699,380.154
		c5.339-7.341,14.35-12.681,20.356-20.021c5.673-7.008,9.138-17.044,17.813-20.714c9.344-4.339,12.465-11.663,18.807-19.338
		c5.673-6.007,18.773-2.328,26.115-5.666c5.34-3.003,10.68-6.006,11.681-12.68c1.001-6.34-3.337-9.01-4.005-14.349"/>
	<path fill="none" stroke="#808080" stroke-width="0.25" stroke-miterlimit="10" d="M420.82,229.654
		c0,8.009-2.67,15.351-1.669,23.026c1.002,8.342,2.336,15.684,2.336,24.026c0,10.345,2.003,22.692-1.001,32.369
		c-4.004,11.68-13.348,19.021-24.026,23.36c-12.347,4.338-8.343,14.682-16.018,22.691c-7.342,8.009-24.786,4.05-33.796,10.391
		c-8.342,5.339-7.583,19.309-13.256,26.65c-5.34,7.675-15.352,11.346-24.027,13.015c-8.342,1.335-13.348,5.339-20.689,8.676
		c-7.008,3.003-27.488,6.096-34.707,2.194"/>
	<path fill="none" stroke="#808080" stroke-width="0.25" stroke-miterlimit="10" d="M409.809,261.69
		c0,9.01,4.672,16.351,6.007,25.361c2.002,14.016-0.334,25.362-12.682,33.037c-9.677,6.34-22.023,4.672-31.034,12.347
		c-6.675,5.673-13.682,13.682-22.358,16.351c-3.003,1.002-6.34,1.002-9.343,2.003"/>
	<path fill="none" stroke="#808080" stroke-width="0.25" stroke-miterlimit="10" d="M418.858,254.368
		c-3.861,12.873-5.471,25.335-11.049,37.349c-6.007,12.873-27.537,12.624-30.264,26.412c-6.388,32.289-22.084,59.834-47.829,70.99
		c-7.725,3.004-12.444,8.582-19.738,12.015c-7.724,4.291-17.593,6.865-26.603,7.723c-17.164,1.717-25.746-2.574-22.742-22.312"/>
	<path fill="none" stroke="#808080" stroke-width="0.25" stroke-miterlimit="10" d="M242.649,402.199
		c3.443-7.748,6.042-18.585,9.772-26.046c1.723-3.156,5.166-6.313,6.601-9.756c1.722-4.018,0.287-9.183,1.722-13.488
		c2.295-8.608,10.043-12.626,11.191-21.522c0.861-6.6-0.574-14.061-6.887-17.791c-7.461-4.305-16.07,2.009-22.384,5.739
		c-3.442,2.009-6.6,4.304-9.756,6.6c-3.444,2.009-6.888,2.009-10.905,3.157c-7.461,2.008-11.19,9.469-16.069,15.209
		c-5.739,6.887-11.766,11.765-19.513,17.217c-8.035,5.453-14.923,8.609-18.653,18.366c-2.008,4.591-12.339,16.07-5.739,19.8
		c3.157,2.009,10.618,0,14.061-0.287c4.593-0.287,6.888,0.574,11.479,1.722c6.887,2.296,18.078-1.148,23.244-6.6
		c2.582-2.87,4.591-7.748,6.887-10.905c2.582-3.443,6.026-6.026,8.321-9.756c2.583-3.444,4.305-7.174,7.175-10.331
		c3.73-4.017,7.747-6.6,11.765-9.757c4.592-4.017,16.645-18.365,6.888-23.243c-2.87-1.435-8.896-0.287-11.766,0.86
		c-4.879,2.009-6.887,3.731-12.34,4.592c-5.165,0.574-10.903,2.008-15.496,4.591c-3.155,1.722-4.825,5.072-8.27,6.794"/>
	<path fill="none" stroke="#808080" stroke-width="0.25" stroke-miterlimit="10" d="M162.316,390.501
		c6.887-6.313,16.645-5.739,22.383-12.339c6.026-6.887,15.209-6.6,21.81-12.34c7.174-5.739,4.878-17.217,16.356-19.226
		c8.609-1.722,8.326,7.717,4.573,13.176c-4.432,6.445-5.64,9.87-5.438,17.524"/>
	<path fill="none" stroke="#808080" stroke-width="0.25" stroke-miterlimit="10" d="M159.734,396.528
		c7.461-2.87,12.912-7.174,21.234-7.748c8.896-0.861,10.905-5.452,18.079-10.044c2.582-1.721,9.469-4.591,12.052-1.434
		c4.018,4.591-1.147,9.469-4.304,12.052c-7.748,6.026-15.01,4.863-25.283,9.496"/>
	<path fill="none" stroke="#808080" stroke-width="0.25" stroke-miterlimit="10" d="M37.488,263.091
		c-0.287,8.896,7.174,16.357,10.044,24.392c4.018,10.33,6.026,20.948,15.496,28.409c8.321,6.313,18.938,3.73,27.548,8.322
		c8.896,4.591,11.479,11.765,22.383,12.339c6.888,0.287,10.146-0.785,17.033-1.645"/>
	<path fill="none" stroke="#808080" stroke-width="0.25" stroke-miterlimit="10" d="M163.543,328.364
		c-0.434,1.955-10.161,6.151-13.031,5.864c-9.757-0.574-14.596-2.266-23.205,2.612c-17.215,9.468-26.684,26.968-36.151,43.896
		c-3.149,5.631-7.438,12.534-2.76,18.465c4.679,5.934,15.843,4.308,22.553,7.533c5.499,2.643,13.104,5.924,19.412,7.309
		c10.965,2.409,21.594,4.609,32.432,8.261c8.34,2.811,16.657,7.215,25.37,7.96c34.521,2.95,62.768-17.058,94.291-24.836
		c11.282-2.784,28.292-19.423,31.024-28.399"/>
	<path fill="none" stroke="#808080" stroke-width="0.25" stroke-miterlimit="10" d="M88.567,370.988
		c-8.322,5.452-13.589,13.689-10.719,23.158c2.295,7.174,10.432,15.582,18.18,17.303c1.436,0.287,3.444,0.287,4.878,0.287"/>
	<path fill="none" stroke="#808080" stroke-width="0.25" stroke-miterlimit="10" d="M108.846,307.313
		c4.111,6.324,11.7,13.597,19.289,13.281c8.854-0.316,17.075-7.906,23.399-13.281c3.478-2.846,6.008-6.957,9.17-10.119
		c4.11-3.479,9.17-6.64,14.229-9.17c5.692-3.162,11.068-4.743,17.708-6.008c6.957-1.265,10.436-5.691,16.127-9.802
		c12.017-8.854,15.178-27.826,29.407-32.886"/>
	<path fill="none" stroke="#808080" stroke-width="0.25" stroke-miterlimit="10" d="M198.333,279.17
		c2.529-6.64,6.323-13.281,9.485-19.289c3.162-6.324,8.854-15.178,13.598-20.237c3.795-3.795,8.854-6.64,13.597-9.486
		c5.376-2.846,10.751-8.538,16.759-10.435"/>
	<path fill="none" stroke="#808080" stroke-width="0.25" stroke-miterlimit="10" d="M198.944,310.989
		c0,11.419-1.056,23.914-4.718,34.687c-3.018,8.834-11.42,8.834-17.884,14.221c-6.464,5.386-8.188,14.22-14.221,19.822
		c-6.895,6.895-16.159,6.248-24.993,7.757c-7.541,1.292-17.884,10.773-7.972,16.375c5.386,3.016,11.204,4.74,17.667,4.524
		c3.232-0.215,6.896-1.508,10.127-0.431"/>
	<path fill="none" stroke="#808080" stroke-width="0.25" stroke-miterlimit="10" d="M44.22,282.186
		c-7.554-2.324-18.883-13.363-22.659,0c-3.485,11.91,0.865,26.886,6.385,37.925c2.614,5.519,2.33,11.169,4.654,16.688
		c3.195,8.715,9.296,14.525,15.105,21.496c3.776,4.358,7.553,9.877,12.201,13.363c5.52,4.067,13.072,5.229,18.301,9.296
		c3.195,2.615,4.067,6.972,8.134,9.005c4.938,2.324,12.201,1.453,17.43,1.453c4.938,0,8.425,0.29,13.073,3.195
		c2.323,1.743,4.356,4.358,7.553,4.648"/>
	<path fill="none" stroke="#808080" stroke-width="0.25" stroke-miterlimit="10" d="M38.119,270.857
		c-6.973-2.905-15.688-8.134-18.592,1.453c-1.162,3.776-0.958,7.879,1.365,11.075"/>
	<path fill="none" stroke="#808080" stroke-width="0.25" stroke-miterlimit="10" d="M50.61,299.035
		c-6.973-5.519-15.106-11.329-17.72,1.453c-1.743,7.262,1.161,17.429,3.775,24.401c3.777,10.748,8.134,23.24,18.882,28.469
		c4.939,2.323,8.54,3.179,13.479,5.793c5.519,3.196,10.103,9.959,14.461,14.317"/>
	<path fill="none" stroke="#808080" stroke-width="0.25" stroke-miterlimit="10" d="M107.782,351.92
		c-6.074-1.012-17.374-9.893-23.185-11.926c-5.81-2.324-20.03-8.344-25.26-2.824c-6.391,6.972,3.017,9.388,7.664,12.002
		c6.973,3.777,17.305,14.643,21.372,21.614"/>
	<path fill="none" stroke="#808080" stroke-width="0.25" stroke-miterlimit="10" d="M103.299,357.561
		c-7.262,0-10.276-4.203-15.506-7.689c-2.613-1.743-7.553-3.486-8.134,0.581c-0.29,3.486,7.581,6.229,9.324,8.843
		c2.033,2.905,4.039,7.799,6.363,10.123"/>
	<path fill="none" stroke="#808080" stroke-width="0.25" stroke-miterlimit="10" d="M122.35,396.999
		c5.322-10.643,17.147-11.826,21.877-21.286c4.731-8.278,3.548-18.33,13.601-22.469c10.643-4.139,14.781,0.591,23.65-7.687
		c4.14-4.139,5.913-6.504,11.826-8.278c4.73-1.774,13.294-8.799,13.294-8.799c5.452-6.735,9.3-10.904,17.639-13.149
		c9.301-2.565,17.317-8.017,25.977-12.186c7.697-3.848,12.828-8.98,21.807-10.262c4.812-0.642,15.395-1.925,18.28,3.207"/>
	<path fill="none" stroke="#808080" stroke-width="0.25" stroke-miterlimit="10" d="M95.15,309.489
		c15.965,7.687,21.877,20.104,41.981,18.921c7.687-0.591,15.373-2.956,23.651-2.365c7.687,0.591,11.825,2.956,20.104,1.182"/>
	<path fill="none" stroke="#808080" stroke-width="0.25" stroke-miterlimit="10" d="M101.063,412.964
		c14.191,5.322,27.79,13.008,43.755,13.599c12.417,0.592,25.425-5.912,37.842-7.095c12.417-1.182,23.061-8.869,35.478-11.234
		c15.373-2.365,26.608-4.73,41.39-10.643"/>
	<path fill="none" stroke="#808080" stroke-width="0.25" stroke-miterlimit="10" d="M210.527,410.304
		c4.311,0,8.62-0.517,12.931-0.345c4.655,0.173,8.966,1.379,13.792,1.207c5.518-0.172,10.518-0.172,15.518-2.931
		c2.931-1.896,5.344-4.483,8.62-5.862"/>
	<path fill="none" stroke="#808080" stroke-width="0.25" stroke-miterlimit="10" d="M322.843,370.005
		c1.756,11.902-16.333,42.689-28.687,49.191c-9.753,5.851-18.854,16.904-29.258,20.155c-11.703,3.251-46.163,3.251-57.216-3.251
		c-6.502-3.251-8.452-9.752-15.604-12.353c-5.852-1.951-8.64-2.285-14.492-3.586"/>
	<path fill="none" stroke="#808080" stroke-width="0.25" stroke-miterlimit="10" d="M441.072,175.188
		c0,7.745,1.937,14.107,2.767,21.299c0.553,8.022-0.554,16.321,0.276,24.342c0.83,9.959-6.361,22.683-9.404,32.088
		c-2.49,6.639-6.916,13.277-13.002,16.597"/>
	<path fill="none" stroke="#808080" stroke-width="0.25" stroke-miterlimit="10" d="M422.127,281.296
		c3.043-3.873,7.881-7.356,9.817-11.506c2.489-4.979,0.276-12.171-0.276-17.427c-0.554-9.958,2.489-17.15,5.256-26.279
		c1.658-6.085,5.255-14.937,0.829-20.746"/>
	<path fill="none" stroke="#808080" stroke-width="0.25" stroke-miterlimit="10" d="M313.233,342.414
		c0.716-3.94-3.582-8.954-6.805-5.373c-1.434,1.433,0,9.312-0.358,11.462c-2.15,11.103-16.118,22.565-13.611,34.743
		c2.149,11.103,8.238-10.029,9.672-13.611c3.223-8.954,7.521-17.55,11.103-26.147"/>
</g>
</svg>
